M48
; DRILL file KiCad 10.0.6 date 2026-09-18T18:18:43
; FORMAT={-:-/ absolute / metric / decimal}
; #@! TF.CreationDate,2026-09-18T18:18:43-03:00
; #@! TF.GenerationSoftware,Kicad,Pcbnew,10.0.6
; #@! TF.FileFunction,Plated,1,2,PTH
FMAT,2
METRIC
; #@! TA.AperFunction,Plated,PTH,ViaDrill
T1C0.300
; #@! TA.AperFunction,Plated,PTH,ComponentDrill
T2C0.800
; #@! TA.AperFunction,Plated,PTH,ComponentDrill
T3C1.000
; #@! TA.AperFunction,Plated,PTH,ComponentDrill
T4C1.500
%
G90
G05
T1
X131.586Y-74.181
T2
X111.5Y-99.38
X111.5Y-107.0
X112.0Y-79.19
X112.0Y-86.81
X131.5Y-79.19
X131.5Y-86.81
X131.5Y-99.19
X131.5Y-106.81
X151.5Y-79.38
X151.5Y-87.0
X152.5Y-99.19
X152.5Y-106.81
X152.69Y-70.0
X160.31Y-70.0
T3
X113.75Y-55.26
X113.75Y-57.8
X113.75Y-60.34
X113.75Y-62.88
X113.75Y-65.42
X113.75Y-67.96
X113.75Y-70.5
X129.0Y-55.26
X129.0Y-57.8
X129.0Y-60.34
X129.0Y-62.88
X129.0Y-65.42
X129.0Y-67.96
X129.0Y-70.5
X139.0Y-56.69
X139.0Y-59.23
X139.0Y-61.77
X139.0Y-64.31
X173.0Y-89.4
X173.0Y-91.9
X173.0Y-94.4
X187.5Y-89.4
X187.5Y-94.4
T4
X117.61Y-79.96
X117.69Y-99.46
X123.96Y-77.42
X124.04Y-96.92
X137.61Y-79.96
X137.69Y-99.46
X143.96Y-77.42
X144.04Y-96.92
X157.61Y-79.96
X157.61Y-99.46
X163.96Y-77.42
X163.96Y-96.92
T4
G00X179.85Y-86.3
M15
G01X181.15Y-86.3
M16
G05
G00X179.85Y-97.5
M15
G01X181.15Y-97.5
M16
G05
M30
