%TF.GenerationSoftware,KiCad,Pcbnew,10.0.6*%
%TF.CreationDate,2026-09-18T18:27:19-03:00*%
%TF.ProjectId,hackpad,6861636b-7061-4642-9e6b-696361645f70,rev?*%
%TF.SameCoordinates,Original*%
%TF.FileFunction,Copper,L2,Bot*%
%TF.FilePolarity,Positive*%
%FSLAX46Y46*%
G04 Gerber Fmt 4.6, Leading zero omitted, Abs format (unit mm)*
G04 Created by KiCad (PCBNEW 10.0.6) date 2026-09-18 18:27:19*
%MOMM*%
%LPD*%
G01*
G04 APERTURE LIST*
G04 Aperture macros list*
%AMRoundRect*
0 Rectangle with rounded corners*
0 $1 Rounding radius*
0 $2 $3 $4 $5 $6 $7 $8 $9 X,Y pos of 4 corners*
0 Add a 4 corners polygon primitive as box body*
4,1,4,$2,$3,$4,$5,$6,$7,$8,$9,$2,$3,0*
0 Add four circle primitives for the rounded corners*
1,1,$1+$1,$2,$3*
1,1,$1+$1,$4,$5*
1,1,$1+$1,$6,$7*
1,1,$1+$1,$8,$9*
0 Add four rect primitives between the rounded corners*
20,1,$1+$1,$2,$3,$4,$5,0*
20,1,$1+$1,$4,$5,$6,$7,0*
20,1,$1+$1,$6,$7,$8,$9,0*
20,1,$1+$1,$8,$9,$2,$3,0*%
G04 Aperture macros list end*
%TA.AperFunction,ComponentPad*%
%ADD10R,3.500000X1.700000*%
%TD*%
%TA.AperFunction,ComponentPad*%
%ADD11O,3.600000X1.700000*%
%TD*%
%TA.AperFunction,ComponentPad*%
%ADD12O,3.700000X1.700000*%
%TD*%
%TA.AperFunction,ComponentPad*%
%ADD13C,2.200000*%
%TD*%
%TA.AperFunction,ComponentPad*%
%ADD14R,2.000000X2.000000*%
%TD*%
%TA.AperFunction,ComponentPad*%
%ADD15C,2.000000*%
%TD*%
%TA.AperFunction,ComponentPad*%
%ADD16R,3.200000X2.000000*%
%TD*%
%TA.AperFunction,ComponentPad*%
%ADD17RoundRect,0.170000X0.680000X-0.680000X0.680000X0.680000X-0.680000X0.680000X-0.680000X-0.680000X0*%
%TD*%
%TA.AperFunction,ComponentPad*%
%ADD18C,1.700000*%
%TD*%
%TA.AperFunction,ComponentPad*%
%ADD19RoundRect,0.250000X0.550000X-0.550000X0.550000X0.550000X-0.550000X0.550000X-0.550000X-0.550000X0*%
%TD*%
%TA.AperFunction,ComponentPad*%
%ADD20C,1.600000*%
%TD*%
%TA.AperFunction,ViaPad*%
%ADD21C,0.600000*%
%TD*%
%TA.AperFunction,Conductor*%
%ADD22C,0.200000*%
%TD*%
G04 APERTURE END LIST*
D10*
%TO.P,U1,1,PA02_A0_D0_1*%
%TO.N,COLUNA0*%
X112750000Y-55260000D03*
D11*
%TO.P,U1,2,PA4_A1_D1_2*%
%TO.N,COLUNA1*%
X112750000Y-57800000D03*
%TO.P,U1,3,PA10_A2_D2_3*%
%TO.N,COLUNA2*%
X112750000Y-60340000D03*
%TO.P,U1,4,PA11_A3_D3_4*%
%TO.N,LINHA0*%
X112750000Y-62880000D03*
%TO.P,U1,5,PA8_A4_D4_SDA_5*%
%TO.N,OLED_SDA*%
X112750000Y-65420000D03*
%TO.P,U1,6,PA9_A5_D5_SCL_6*%
%TO.N,OLED_SCL*%
X112750000Y-67960000D03*
%TO.P,U1,7,PB08_A6_D6_TX_7*%
%TO.N,LINHA1*%
X112750000Y-70500000D03*
%TO.P,U1,8,PB09_A7_D7_RX_8*%
%TO.N,LINHA2*%
X130000000Y-70500000D03*
%TO.P,U1,9,PA7_A8_D8_SCK_9*%
%TO.N,PORTA A*%
X130000000Y-67960000D03*
%TO.P,U1,10,PA5_A9_D9_MISO_10*%
%TO.N,PORTA B*%
X130000000Y-65420000D03*
D12*
%TO.P,U1,11,PA6_A10_D10_MOSI_11*%
%TO.N,unconnected-(U1-PA6_A10_D10_MOSI-Pad11)*%
X130000000Y-62880000D03*
%TO.P,U1,12,3V3_12*%
%TO.N,+3.3V*%
X130000000Y-60340000D03*
%TO.P,U1,13,GND_13*%
%TO.N,GND*%
X130000000Y-57800000D03*
%TO.P,U1,14,5V_14*%
%TO.N,+5V*%
X130000000Y-55260000D03*
%TD*%
D13*
%TO.P,SW3,1,1_1*%
%TO.N,COLUNA2*%
X163960000Y-77420000D03*
%TO.P,SW3,2,2_2*%
%TO.N,Net-(D3-A)*%
X157610000Y-79960000D03*
%TD*%
%TO.P,SW1,1,1_1*%
%TO.N,COLUNA0*%
X123960000Y-77420000D03*
%TO.P,SW1,2,2_2*%
%TO.N,Net-(D1-A)*%
X117610000Y-79960000D03*
%TD*%
%TO.P,SW2,1,1_1*%
%TO.N,COLUNA1*%
X143960000Y-77420000D03*
%TO.P,SW2,2,2_2*%
%TO.N,Net-(D2-A)*%
X137610000Y-79960000D03*
%TD*%
D14*
%TO.P,SW10,A,A_A*%
%TO.N,PORTA A*%
X173000000Y-89400000D03*
D15*
%TO.P,SW10,B,B_B*%
%TO.N,PORTA B*%
X173000000Y-94400000D03*
%TO.P,SW10,C,C_C*%
%TO.N,GND*%
X173000000Y-91900000D03*
D16*
%TO.P,SW10,MP*%
%TO.N,N/C*%
X180500000Y-86300000D03*
X180500000Y-97500000D03*
D15*
%TO.P,SW10,S1,S1_S1*%
%TO.N,GND*%
X187500000Y-94400000D03*
%TO.P,SW10,S2,S2_S2*%
%TO.N,LINHA2*%
X187500000Y-89400000D03*
%TD*%
D13*
%TO.P,SW4,1,1_1*%
%TO.N,COLUNA0*%
X124040000Y-96920000D03*
%TO.P,SW4,2,2_2*%
%TO.N,Net-(D4-A)*%
X117690000Y-99460000D03*
%TD*%
%TO.P,SW5,1,1_1*%
%TO.N,COLUNA1*%
X144040000Y-96920000D03*
%TO.P,SW5,2,2_2*%
%TO.N,Net-(D5-A)*%
X137690000Y-99460000D03*
%TD*%
%TO.P,SW6,1,1_1*%
%TO.N,COLUNA2*%
X163960000Y-96920000D03*
%TO.P,SW6,2,2_2*%
%TO.N,Net-(D6-A)*%
X157610000Y-99460000D03*
%TD*%
D17*
%TO.P,U2,1,GND_1*%
%TO.N,GND*%
X139000000Y-64310000D03*
D18*
%TO.P,U2,2,VCC_2*%
%TO.N,+3.3V*%
X139000000Y-61770000D03*
%TO.P,U2,3,SCL_3*%
%TO.N,OLED_SCL*%
X139000000Y-59230000D03*
%TO.P,U2,4,SDA_4*%
%TO.N,OLED_SDA*%
X139000000Y-56690000D03*
%TD*%
D19*
%TO.P,D1,1,K_1*%
%TO.N,LINHA0*%
X112000000Y-86810000D03*
D20*
%TO.P,D1,2,A_2*%
%TO.N,Net-(D1-A)*%
X112000000Y-79190000D03*
%TD*%
D19*
%TO.P,D2,1,K_1*%
%TO.N,LINHA0*%
X131500000Y-86810000D03*
D20*
%TO.P,D2,2,A_2*%
%TO.N,Net-(D2-A)*%
X131500000Y-79190000D03*
%TD*%
D19*
%TO.P,D5,1,K_1*%
%TO.N,LINHA1*%
X131500000Y-106810000D03*
D20*
%TO.P,D5,2,A_2*%
%TO.N,Net-(D5-A)*%
X131500000Y-99190000D03*
%TD*%
D19*
%TO.P,D4,1,K_1*%
%TO.N,LINHA1*%
X111500000Y-107000000D03*
D20*
%TO.P,D4,2,A_2*%
%TO.N,Net-(D4-A)*%
X111500000Y-99380000D03*
%TD*%
D19*
%TO.P,D6,1,K_1*%
%TO.N,LINHA1*%
X152500000Y-106810000D03*
D20*
%TO.P,D6,2,A_2*%
%TO.N,Net-(D6-A)*%
X152500000Y-99190000D03*
%TD*%
D19*
%TO.P,D3,1,K_1*%
%TO.N,LINHA0*%
X151500000Y-87000000D03*
D20*
%TO.P,D3,2,A_2*%
%TO.N,Net-(D3-A)*%
X151500000Y-79380000D03*
%TD*%
%TO.P,R1,1*%
%TO.N,LED_DATA*%
X160310000Y-70000000D03*
%TO.P,R1,2*%
%TO.N,Net-(D10-DIN)*%
X152690000Y-70000000D03*
%TD*%
D21*
%TO.N,COLUNA2*%
X131585800Y-74181400D03*
%TD*%
%TO.N,COLUNA0*%
D22*
X110698300Y-55260000D02*
X110606400Y-55351900D01*
X114085900Y-61610000D02*
X123960000Y-71484100D01*
X123960000Y-71484100D02*
X123960000Y-77420000D01*
X110606400Y-55351900D02*
X110606400Y-60803900D01*
X124040000Y-96920000D02*
X124040000Y-77500000D01*
X110606400Y-60803900D02*
X111412500Y-61610000D01*
X113750000Y-55260000D02*
X110698300Y-55260000D01*
X111412500Y-61610000D02*
X114085900Y-61610000D01*
X124040000Y-77500000D02*
X123960000Y-77420000D01*
%TO.N,COLUNA1*%
X114851700Y-57937700D02*
X129296300Y-72382300D01*
X114851700Y-57800000D02*
X114851700Y-57937700D01*
X144040000Y-96920000D02*
X144040000Y-77500000D01*
X138922300Y-72382300D02*
X143960000Y-77420000D01*
X144040000Y-77500000D02*
X143960000Y-77420000D01*
X113750000Y-57800000D02*
X114851700Y-57800000D01*
X129296300Y-72382300D02*
X138922300Y-72382300D01*
%TO.N,COLUNA2*%
X113750000Y-60340000D02*
X114851700Y-60340000D01*
X164028100Y-77488100D02*
X163960000Y-77420000D01*
X128693100Y-74181400D02*
X131585800Y-74181400D01*
X164028100Y-96851900D02*
X164028100Y-77488100D01*
X163960000Y-96920000D02*
X164028100Y-96851900D01*
X114851700Y-60340000D02*
X128693100Y-74181400D01*
%TO.N,LINHA0*%
X110648300Y-62880000D02*
X110648300Y-85458300D01*
X110648300Y-85458300D02*
X112000000Y-86810000D01*
X113750000Y-62880000D02*
X110648300Y-62880000D01*
%TO.N,LINHA1*%
X114851700Y-103648300D02*
X114851700Y-70500000D01*
X111500000Y-107000000D02*
X114851700Y-103648300D01*
X113750000Y-70500000D02*
X114851700Y-70500000D01*
%TO.N,+3.3V*%
X133581700Y-61770000D02*
X139000000Y-61770000D01*
X129000000Y-60340000D02*
X132151700Y-60340000D01*
X132151700Y-60340000D02*
X133581700Y-61770000D01*
%TO.N,GND*%
X151757500Y-63176700D02*
X169881900Y-81301100D01*
X140182100Y-61319500D02*
X139362600Y-60500000D01*
X169881900Y-81301100D02*
X169881900Y-88781900D01*
X137800700Y-60500000D02*
X135100700Y-57800000D01*
X140182100Y-63176700D02*
X151757500Y-63176700D01*
X169881900Y-88781900D02*
X173000000Y-91900000D01*
X139000000Y-64310000D02*
X140133300Y-63176700D01*
X140133300Y-63176700D02*
X140182100Y-63176700D01*
X139362600Y-60500000D02*
X137800700Y-60500000D01*
X140182100Y-63176700D02*
X140182100Y-61319500D01*
X135100700Y-57800000D02*
X129000000Y-57800000D01*
%TD*%
M02*
