%TF.GenerationSoftware,KiCad,Pcbnew,10.0.6*%
%TF.CreationDate,2026-09-18T18:27:19-03:00*%
%TF.ProjectId,hackpad,6861636b-7061-4642-9e6b-696361645f70,rev?*%
%TF.SameCoordinates,Original*%
%TF.FileFunction,Legend,Top*%
%TF.FilePolarity,Positive*%
%FSLAX46Y46*%
G04 Gerber Fmt 4.6, Leading zero omitted, Abs format (unit mm)*
G04 Created by KiCad (PCBNEW 10.0.6) date 2026-09-18 18:27:19*
%MOMM*%
%LPD*%
G01*
G04 APERTURE LIST*
%ADD10C,0.100000*%
%ADD11C,0.000000*%
%ADD12C,0.150000*%
%ADD13C,0.101600*%
%ADD14C,0.127000*%
%ADD15C,0.120000*%
%ADD16C,0.254000*%
%ADD17C,0.025400*%
G04 APERTURE END LIST*
D10*
X182440755Y-78559245D02*
X184766277Y-78559245D01*
X183240293Y-80085229D01*
X180911133Y-80088867D01*
X180914606Y-77759542D01*
X182440755Y-76233557D01*
X182440755Y-78559245D01*
X187029622Y-80088867D02*
X185500000Y-78559245D01*
X185500000Y-75500000D01*
X182440755Y-75500000D01*
X180911133Y-73970378D01*
X187029622Y-73970378D01*
X187029622Y-80088867D01*
D11*
G36*
X186000000Y-104500000D02*
G01*
X186514309Y-104530619D01*
X186977459Y-104584491D01*
X187190576Y-104620875D01*
X187391775Y-104663944D01*
X187581347Y-104713989D01*
X187759582Y-104771302D01*
X187926772Y-104836172D01*
X188083206Y-104908890D01*
X188229176Y-104989748D01*
X188364972Y-105079035D01*
X188490884Y-105177042D01*
X188607205Y-105284061D01*
X188714224Y-105400381D01*
X188812231Y-105526294D01*
X188901518Y-105662090D01*
X188982376Y-105808060D01*
X189055094Y-105964494D01*
X189119964Y-106131684D01*
X189177277Y-106309919D01*
X189227322Y-106499491D01*
X189270391Y-106700690D01*
X189306775Y-106913806D01*
X189360647Y-107376956D01*
X189391266Y-107891266D01*
X189400955Y-108459061D01*
X189391266Y-109026856D01*
X189360647Y-109541165D01*
X189306775Y-110004315D01*
X189270391Y-110217432D01*
X189227322Y-110418631D01*
X189177277Y-110608203D01*
X189119964Y-110786438D01*
X189055094Y-110953628D01*
X188982376Y-111110062D01*
X188901518Y-111256032D01*
X188812231Y-111391828D01*
X188714224Y-111517740D01*
X188607205Y-111634061D01*
X188490884Y-111741080D01*
X188364972Y-111839087D01*
X188229176Y-111928374D01*
X188083206Y-112009232D01*
X187926772Y-112081950D01*
X187759582Y-112146820D01*
X187581347Y-112204133D01*
X187391775Y-112254178D01*
X187190576Y-112297247D01*
X186977459Y-112333631D01*
X186514309Y-112387503D01*
X186000000Y-112418122D01*
X185432205Y-112427811D01*
X184864410Y-112418122D01*
X184350101Y-112387503D01*
X183886950Y-112333631D01*
X183673834Y-112297247D01*
X183472635Y-112254178D01*
X183283063Y-112204133D01*
X183104828Y-112146820D01*
X182937638Y-112081950D01*
X182781204Y-112009232D01*
X182635234Y-111928374D01*
X182499438Y-111839087D01*
X182373525Y-111741080D01*
X182257205Y-111634061D01*
X182150186Y-111517740D01*
X182052179Y-111391828D01*
X181962892Y-111256032D01*
X181882034Y-111110062D01*
X181809316Y-110953628D01*
X181805026Y-110942572D01*
X183943924Y-110942572D01*
X185029145Y-110942572D01*
X185029145Y-109122570D01*
X185029971Y-109072882D01*
X185032406Y-109024417D01*
X185036390Y-108977198D01*
X185041862Y-108931248D01*
X185048760Y-108886591D01*
X185057023Y-108843250D01*
X185066589Y-108801247D01*
X185077398Y-108760607D01*
X185089387Y-108721353D01*
X185102496Y-108683508D01*
X185116664Y-108647094D01*
X185131828Y-108612136D01*
X185147928Y-108578656D01*
X185164902Y-108546679D01*
X185182689Y-108516226D01*
X185201228Y-108487322D01*
X185220457Y-108459989D01*
X185240315Y-108434251D01*
X185260741Y-108410132D01*
X185281673Y-108387653D01*
X185303051Y-108366840D01*
X185324812Y-108347714D01*
X185346896Y-108330299D01*
X185369241Y-108314619D01*
X185391785Y-108300697D01*
X185414469Y-108288555D01*
X185437229Y-108278217D01*
X185460005Y-108269707D01*
X185482736Y-108263048D01*
X185505360Y-108258262D01*
X185527817Y-108255374D01*
X185550043Y-108254406D01*
X185569656Y-108255029D01*
X185588394Y-108256887D01*
X185606276Y-108259959D01*
X185623317Y-108264227D01*
X185639534Y-108269672D01*
X185654942Y-108276273D01*
X185669560Y-108284011D01*
X185683403Y-108292869D01*
X185696487Y-108302825D01*
X185708830Y-108313861D01*
X185720447Y-108325957D01*
X185731355Y-108339095D01*
X185741570Y-108353254D01*
X185751109Y-108368416D01*
X185768226Y-108401671D01*
X185782835Y-108438705D01*
X185795069Y-108479363D01*
X185805060Y-108523491D01*
X185812939Y-108570935D01*
X185818838Y-108621541D01*
X185822889Y-108675153D01*
X185825222Y-108731619D01*
X185825971Y-108790782D01*
X185825971Y-110942638D01*
X186920486Y-110942638D01*
X186920486Y-108635803D01*
X186917213Y-108501746D01*
X186907236Y-108374166D01*
X186899659Y-108312898D01*
X186890318Y-108253361D01*
X186879183Y-108195594D01*
X186866225Y-108139633D01*
X186851413Y-108085515D01*
X186834719Y-108033279D01*
X186816113Y-107982962D01*
X186795565Y-107934601D01*
X186773046Y-107888234D01*
X186748526Y-107843899D01*
X186721976Y-107801632D01*
X186693366Y-107761471D01*
X186662667Y-107723453D01*
X186629850Y-107687617D01*
X186594884Y-107654000D01*
X186557740Y-107622639D01*
X186518389Y-107593571D01*
X186476802Y-107566834D01*
X186432948Y-107542466D01*
X186386798Y-107520503D01*
X186338323Y-107500985D01*
X186287493Y-107483947D01*
X186234278Y-107469427D01*
X186178650Y-107457464D01*
X186120578Y-107448093D01*
X186060033Y-107441354D01*
X185996986Y-107437283D01*
X185931407Y-107435917D01*
X185868714Y-107437014D01*
X185806293Y-107440331D01*
X185744271Y-107445910D01*
X185682776Y-107453791D01*
X185621935Y-107464016D01*
X185561875Y-107476624D01*
X185502723Y-107491658D01*
X185444607Y-107509157D01*
X185387653Y-107529164D01*
X185331990Y-107551718D01*
X185277743Y-107576860D01*
X185225041Y-107604633D01*
X185174011Y-107635075D01*
X185124779Y-107668229D01*
X185077473Y-107704135D01*
X185032221Y-107742834D01*
X185032221Y-105947636D01*
X183943924Y-106133671D01*
X183943924Y-110942572D01*
X181805026Y-110942572D01*
X181744446Y-110786438D01*
X181687133Y-110608203D01*
X181637088Y-110418631D01*
X181594019Y-110217432D01*
X181557635Y-110004315D01*
X181503763Y-109541165D01*
X181473144Y-109026856D01*
X181463455Y-108459061D01*
X181473144Y-107891266D01*
X181503763Y-107376957D01*
X181557635Y-106913806D01*
X181594019Y-106700690D01*
X181637088Y-106499491D01*
X181687133Y-106309919D01*
X181743807Y-106133671D01*
X181744446Y-106131684D01*
X181809316Y-105964494D01*
X181882034Y-105808060D01*
X181962892Y-105662090D01*
X182052179Y-105526294D01*
X182150186Y-105400381D01*
X182257205Y-105284061D01*
X182373525Y-105177042D01*
X182499438Y-105079035D01*
X182635234Y-104989748D01*
X182781204Y-104908890D01*
X182937638Y-104836172D01*
X183104828Y-104771302D01*
X183283063Y-104713989D01*
X183472635Y-104663944D01*
X183673834Y-104620875D01*
X183886950Y-104584491D01*
X184350101Y-104530619D01*
X184864410Y-104500000D01*
X185432205Y-104490311D01*
X186000000Y-104500000D01*
G37*
G36*
X182470378Y-56000000D02*
G01*
X182671933Y-56015712D01*
X182870557Y-56041586D01*
X183066001Y-56077367D01*
X183258015Y-56122800D01*
X183446349Y-56177627D01*
X183630755Y-56241595D01*
X183810984Y-56314448D01*
X183986786Y-56395929D01*
X184157911Y-56485784D01*
X184324110Y-56583757D01*
X184485134Y-56689592D01*
X184640734Y-56803034D01*
X184790660Y-56923827D01*
X184934664Y-57051716D01*
X185072494Y-57186445D01*
X185203904Y-57327759D01*
X185328642Y-57475401D01*
X185446459Y-57629117D01*
X185557107Y-57788651D01*
X185660336Y-57953748D01*
X185755897Y-58124151D01*
X185843540Y-58299605D01*
X185923016Y-58479856D01*
X185994075Y-58664646D01*
X186056469Y-58853721D01*
X186109948Y-59046825D01*
X186154263Y-59243703D01*
X186189164Y-59444098D01*
X186214402Y-59647756D01*
X186229727Y-59854421D01*
X186234891Y-60063837D01*
X186221750Y-60397509D01*
X186183007Y-60723740D01*
X186119680Y-61041488D01*
X186032789Y-61349705D01*
X185923353Y-61647348D01*
X185792390Y-61933371D01*
X185640921Y-62206730D01*
X185469964Y-62466379D01*
X185280539Y-62711274D01*
X185073664Y-62940370D01*
X184850358Y-63152622D01*
X184611642Y-63346985D01*
X184358533Y-63522414D01*
X184092051Y-63677864D01*
X183813215Y-63812290D01*
X183523045Y-63924648D01*
X183504559Y-63927925D01*
X183486824Y-63930257D01*
X183469827Y-63931678D01*
X183453559Y-63932222D01*
X183438008Y-63931924D01*
X183423164Y-63930816D01*
X183409017Y-63928934D01*
X183395556Y-63926310D01*
X183382769Y-63922979D01*
X183370646Y-63918975D01*
X183359178Y-63914332D01*
X183348352Y-63909084D01*
X183338158Y-63903264D01*
X183328586Y-63896907D01*
X183319625Y-63890047D01*
X183311263Y-63882717D01*
X183303492Y-63874952D01*
X183296299Y-63866785D01*
X183289674Y-63858251D01*
X183283607Y-63849383D01*
X183278087Y-63840216D01*
X183273102Y-63830783D01*
X183268643Y-63821118D01*
X183264699Y-63811255D01*
X183258312Y-63791073D01*
X183253856Y-63770507D01*
X183251244Y-63749829D01*
X183250393Y-63729311D01*
X183252773Y-63324830D01*
X183255153Y-62612519D01*
X183253692Y-62542951D01*
X183249418Y-62476451D01*
X183242493Y-62413006D01*
X183233083Y-62352599D01*
X183221349Y-62295216D01*
X183207456Y-62240842D01*
X183191566Y-62189462D01*
X183173843Y-62141060D01*
X183154451Y-62095622D01*
X183133552Y-62053132D01*
X183111311Y-62013576D01*
X183087890Y-61976938D01*
X183063453Y-61943203D01*
X183038162Y-61912357D01*
X183012183Y-61884384D01*
X182985677Y-61859270D01*
X183151685Y-61837285D01*
X183317318Y-61808167D01*
X183481150Y-61770488D01*
X183641754Y-61722817D01*
X183797706Y-61663727D01*
X183873491Y-61629453D01*
X183947578Y-61591789D01*
X184019788Y-61550555D01*
X184089945Y-61505574D01*
X184157868Y-61456666D01*
X184223380Y-61403653D01*
X184286303Y-61346357D01*
X184346458Y-61284599D01*
X184403667Y-61218200D01*
X184457752Y-61146981D01*
X184508535Y-61070765D01*
X184555837Y-60989372D01*
X184599480Y-60902624D01*
X184639285Y-60810342D01*
X184675076Y-60712349D01*
X184706673Y-60608464D01*
X184733897Y-60498510D01*
X184756572Y-60382308D01*
X184774518Y-60259679D01*
X184787557Y-60130445D01*
X184795512Y-59994427D01*
X184798203Y-59851447D01*
X184796411Y-59769086D01*
X184791088Y-59688631D01*
X184782312Y-59610078D01*
X184770161Y-59533419D01*
X184754712Y-59458650D01*
X184736044Y-59385764D01*
X184714234Y-59314757D01*
X184689360Y-59245622D01*
X184661500Y-59178353D01*
X184630732Y-59112946D01*
X184597135Y-59049394D01*
X184560785Y-58987692D01*
X184521761Y-58927833D01*
X184480140Y-58869813D01*
X184436001Y-58813626D01*
X184389422Y-58759266D01*
X184408473Y-58706484D01*
X184419695Y-58669755D01*
X184431175Y-58626455D01*
X184442257Y-58576827D01*
X184452286Y-58521110D01*
X184460607Y-58459547D01*
X184466565Y-58392379D01*
X184469504Y-58319847D01*
X184468770Y-58242192D01*
X184466821Y-58201519D01*
X184463707Y-58159656D01*
X184459347Y-58116633D01*
X184453660Y-58072480D01*
X184446563Y-58027227D01*
X184437974Y-57980905D01*
X184427811Y-57933543D01*
X184415993Y-57885172D01*
X184402438Y-57835822D01*
X184387063Y-57785524D01*
X184369787Y-57734306D01*
X184350528Y-57682200D01*
X184334758Y-57678540D01*
X184314842Y-57675601D01*
X184286725Y-57673376D01*
X184250271Y-57672958D01*
X184228875Y-57673766D01*
X184205344Y-57675435D01*
X184179662Y-57678100D01*
X184151811Y-57681898D01*
X184121774Y-57686966D01*
X184089534Y-57693439D01*
X184055074Y-57701455D01*
X184018378Y-57711148D01*
X183979429Y-57722656D01*
X183938209Y-57736116D01*
X183894702Y-57751662D01*
X183848890Y-57769432D01*
X183800757Y-57789562D01*
X183750286Y-57812188D01*
X183697460Y-57837447D01*
X183642262Y-57865475D01*
X183584675Y-57896408D01*
X183524682Y-57930382D01*
X183462266Y-57967534D01*
X183397410Y-58008001D01*
X183330098Y-58051918D01*
X183260312Y-58099422D01*
X183140387Y-58067727D01*
X183018635Y-58040217D01*
X182895347Y-58016882D01*
X182770818Y-57997709D01*
X182645339Y-57982687D01*
X182519205Y-57971805D01*
X182392708Y-57965051D01*
X182266142Y-57962415D01*
X182139593Y-57965051D01*
X182013146Y-57971805D01*
X181887090Y-57982687D01*
X181761714Y-57997709D01*
X181637304Y-58016882D01*
X181514150Y-58040217D01*
X181392541Y-58067727D01*
X181272764Y-58099422D01*
X181135518Y-58008001D01*
X181008099Y-57930382D01*
X180890374Y-57865475D01*
X180782208Y-57812188D01*
X180683467Y-57769432D01*
X180594017Y-57736116D01*
X180513723Y-57711148D01*
X180442452Y-57693439D01*
X180380068Y-57681898D01*
X180326438Y-57675435D01*
X180281427Y-57672958D01*
X180244902Y-57673376D01*
X180196767Y-57678540D01*
X180180961Y-57682200D01*
X180144566Y-57785524D01*
X180115758Y-57885172D01*
X180093881Y-57980905D01*
X180078282Y-58072480D01*
X180068306Y-58159656D01*
X180063299Y-58242192D01*
X180062604Y-58319847D01*
X180065569Y-58392379D01*
X180071539Y-58459547D01*
X180079858Y-58521110D01*
X180089873Y-58576827D01*
X180100928Y-58626455D01*
X180123543Y-58706484D01*
X180142465Y-58759266D01*
X180096081Y-58813626D01*
X180052088Y-58869813D01*
X180010568Y-58927833D01*
X179971604Y-58987692D01*
X179935279Y-59049394D01*
X179901677Y-59112946D01*
X179870881Y-59178353D01*
X179842973Y-59245622D01*
X179818037Y-59314757D01*
X179796157Y-59385764D01*
X179777414Y-59458650D01*
X179761893Y-59533419D01*
X179749676Y-59610078D01*
X179740847Y-59688631D01*
X179735488Y-59769086D01*
X179733684Y-59851447D01*
X179736369Y-59994089D01*
X179744306Y-60129820D01*
X179757317Y-60258814D01*
X179775225Y-60381249D01*
X179797850Y-60497301D01*
X179825015Y-60607146D01*
X179856542Y-60710961D01*
X179892254Y-60808922D01*
X179931972Y-60901206D01*
X179975517Y-60987989D01*
X180022713Y-61069448D01*
X180073382Y-61145758D01*
X180127344Y-61217097D01*
X180184423Y-61283641D01*
X180244440Y-61345566D01*
X180307218Y-61403048D01*
X180372578Y-61456264D01*
X180440342Y-61505391D01*
X180510333Y-61550605D01*
X180582372Y-61592082D01*
X180731884Y-61664532D01*
X180887455Y-61724152D01*
X181047660Y-61772354D01*
X181211076Y-61810549D01*
X181376280Y-61840149D01*
X181541846Y-61862564D01*
X181520703Y-61882518D01*
X181499893Y-61904306D01*
X181479500Y-61927936D01*
X181459605Y-61953417D01*
X181440292Y-61980756D01*
X181421643Y-62009963D01*
X181403740Y-62041045D01*
X181386667Y-62074010D01*
X181370504Y-62108867D01*
X181355337Y-62145623D01*
X181341245Y-62184288D01*
X181328313Y-62224870D01*
X181316623Y-62267376D01*
X181306258Y-62311814D01*
X181297299Y-62358194D01*
X181289830Y-62406524D01*
X181243469Y-62426709D01*
X181189775Y-62447385D01*
X181129582Y-62467266D01*
X181063723Y-62485068D01*
X180993031Y-62499503D01*
X180918341Y-62509288D01*
X180879757Y-62512034D01*
X180840486Y-62513136D01*
X180800632Y-62512433D01*
X180760299Y-62509763D01*
X180719592Y-62504967D01*
X180678615Y-62497883D01*
X180637472Y-62488351D01*
X180596267Y-62476211D01*
X180555105Y-62461301D01*
X180514089Y-62443461D01*
X180473324Y-62422530D01*
X180432914Y-62398348D01*
X180392964Y-62370754D01*
X180353576Y-62339587D01*
X180314857Y-62304686D01*
X180276909Y-62265892D01*
X180239838Y-62223043D01*
X180203747Y-62175978D01*
X180168740Y-62124537D01*
X180134922Y-62068559D01*
X180125123Y-62051700D01*
X180112920Y-62032283D01*
X180095892Y-62007011D01*
X180074068Y-61976990D01*
X180047481Y-61943323D01*
X180016161Y-61907114D01*
X179980141Y-61869468D01*
X179960378Y-61850451D01*
X179939451Y-61831488D01*
X179917365Y-61812717D01*
X179894123Y-61794278D01*
X179869730Y-61776306D01*
X179844189Y-61758942D01*
X179817503Y-61742321D01*
X179789679Y-61726584D01*
X179760718Y-61711866D01*
X179730625Y-61698308D01*
X179699404Y-61686045D01*
X179667058Y-61675218D01*
X179633593Y-61665962D01*
X179599011Y-61658418D01*
X179563317Y-61652721D01*
X179526514Y-61649011D01*
X179510590Y-61649280D01*
X179471677Y-61652139D01*
X179447752Y-61655504D01*
X179423062Y-61660672D01*
X179399269Y-61668028D01*
X179388228Y-61672647D01*
X179378033Y-61677958D01*
X179368893Y-61684009D01*
X179361016Y-61690848D01*
X179354608Y-61698522D01*
X179349878Y-61707081D01*
X179347032Y-61716572D01*
X179346280Y-61727044D01*
X179347827Y-61738545D01*
X179351883Y-61751122D01*
X179358654Y-61764824D01*
X179368348Y-61779699D01*
X179381173Y-61795796D01*
X179397336Y-61813162D01*
X179417046Y-61831845D01*
X179440509Y-61851895D01*
X179467933Y-61873358D01*
X179499526Y-61896283D01*
X179511049Y-61902572D01*
X179524706Y-61910918D01*
X179542965Y-61923162D01*
X179565329Y-61939626D01*
X179591299Y-61960633D01*
X179620380Y-61986507D01*
X179635932Y-62001369D01*
X179652075Y-62017569D01*
X179668746Y-62035147D01*
X179685885Y-62054143D01*
X179703429Y-62074598D01*
X179721315Y-62096551D01*
X179739481Y-62120044D01*
X179757866Y-62145117D01*
X179776407Y-62171809D01*
X179795043Y-62200162D01*
X179813710Y-62230215D01*
X179832347Y-62262009D01*
X179850892Y-62295585D01*
X179869283Y-62330982D01*
X179887456Y-62368242D01*
X179905352Y-62407404D01*
X179922906Y-62448508D01*
X179940058Y-62491596D01*
X179952224Y-62522324D01*
X179968835Y-62557001D01*
X179993710Y-62601236D01*
X180027785Y-62652541D01*
X180048564Y-62680067D01*
X180071993Y-62708427D01*
X180098190Y-62737310D01*
X180127271Y-62766405D01*
X180159354Y-62795402D01*
X180194553Y-62823988D01*
X180232988Y-62851853D01*
X180274774Y-62878687D01*
X180320029Y-62904177D01*
X180368868Y-62928013D01*
X180421410Y-62949884D01*
X180477771Y-62969478D01*
X180538068Y-62986485D01*
X180602417Y-63000594D01*
X180670936Y-63011494D01*
X180743741Y-63018873D01*
X180820950Y-63022420D01*
X180902678Y-63021825D01*
X180989044Y-63016777D01*
X181080163Y-63006963D01*
X181176153Y-62992074D01*
X181277130Y-62971799D01*
X181282687Y-63729311D01*
X181281818Y-63749648D01*
X181279162Y-63770150D01*
X181277140Y-63780379D01*
X181274642Y-63790549D01*
X181271659Y-63800628D01*
X181268182Y-63810580D01*
X181264201Y-63820374D01*
X181259706Y-63829975D01*
X181254688Y-63839350D01*
X181249137Y-63848467D01*
X181243044Y-63857291D01*
X181236400Y-63865789D01*
X181229194Y-63873929D01*
X181221418Y-63881676D01*
X181213062Y-63888997D01*
X181204115Y-63895859D01*
X181194570Y-63902228D01*
X181184416Y-63908071D01*
X181173644Y-63913356D01*
X181162243Y-63918047D01*
X181150206Y-63922113D01*
X181137522Y-63925520D01*
X181124181Y-63928234D01*
X181110174Y-63930222D01*
X181095492Y-63931450D01*
X181080126Y-63931886D01*
X181064064Y-63931496D01*
X181047299Y-63930246D01*
X181029820Y-63928104D01*
X181011619Y-63925035D01*
X180865069Y-63871749D01*
X180721225Y-63812805D01*
X180580216Y-63748337D01*
X180442168Y-63678473D01*
X180307210Y-63603346D01*
X180175469Y-63523087D01*
X180047072Y-63437825D01*
X179922148Y-63347693D01*
X179800823Y-63252822D01*
X179683226Y-63153341D01*
X179569483Y-63049383D01*
X179459723Y-62941078D01*
X179354074Y-62828557D01*
X179252662Y-62711951D01*
X179155616Y-62591392D01*
X179063063Y-62467009D01*
X178975130Y-62338934D01*
X178891946Y-62207299D01*
X178813637Y-62072233D01*
X178740332Y-61933868D01*
X178672158Y-61792335D01*
X178609243Y-61647765D01*
X178551714Y-61500289D01*
X178499699Y-61350038D01*
X178453325Y-61197142D01*
X178412721Y-61041734D01*
X178378013Y-60883943D01*
X178349330Y-60723900D01*
X178326798Y-60561737D01*
X178310547Y-60397585D01*
X178300702Y-60231575D01*
X178297392Y-60063837D01*
X178302557Y-59854421D01*
X178317886Y-59647756D01*
X178343129Y-59444098D01*
X178378037Y-59243703D01*
X178422359Y-59046825D01*
X178475848Y-58853721D01*
X178538252Y-58664646D01*
X178609323Y-58479856D01*
X178688811Y-58299605D01*
X178776466Y-58124151D01*
X178872039Y-57953748D01*
X178975280Y-57788651D01*
X179085941Y-57629117D01*
X179203770Y-57475401D01*
X179328519Y-57327759D01*
X179459938Y-57186445D01*
X179597777Y-57051716D01*
X179741787Y-56923827D01*
X179891719Y-56803034D01*
X180047323Y-56689592D01*
X180208349Y-56583757D01*
X180374548Y-56485784D01*
X180545671Y-56395929D01*
X180721467Y-56314448D01*
X180901687Y-56241595D01*
X181086081Y-56177627D01*
X181274401Y-56122800D01*
X181466396Y-56077367D01*
X181661818Y-56041586D01*
X181860415Y-56015712D01*
X182061940Y-56000000D01*
X182266142Y-55994706D01*
X182470378Y-56000000D01*
G37*
D12*
G36*
X112099040Y-112329581D02*
G01*
X112506193Y-112329581D01*
X112663302Y-112937868D01*
X112819740Y-112329581D01*
X113225488Y-112329581D01*
X113225488Y-113330000D01*
X112972758Y-113330000D01*
X112972758Y-112566252D01*
X112776692Y-113330000D01*
X112547836Y-113330000D01*
X112352503Y-112566252D01*
X112352503Y-113330000D01*
X112099040Y-113330000D01*
X112099040Y-112329581D01*
G37*
G36*
X113886513Y-112591461D02*
G01*
X113968414Y-112601545D01*
X114017297Y-112614661D01*
X114059077Y-112634187D01*
X114094809Y-112659980D01*
X114125701Y-112695816D01*
X114150802Y-112747175D01*
X114166388Y-112803318D01*
X114171318Y-112854825D01*
X114171318Y-113175455D01*
X114173171Y-113223976D01*
X114177791Y-113255811D01*
X114187215Y-113286404D01*
X114206184Y-113330000D01*
X113945211Y-113330000D01*
X113924694Y-113286463D01*
X113915169Y-113239446D01*
X113858842Y-113286247D01*
X113806542Y-113315284D01*
X113756487Y-113331699D01*
X113699684Y-113342014D01*
X113635083Y-113345631D01*
X113569557Y-113341254D01*
X113516255Y-113329151D01*
X113473002Y-113310440D01*
X113438040Y-113285608D01*
X113408201Y-113253284D01*
X113387467Y-113218299D01*
X113375012Y-113180015D01*
X113370751Y-113137475D01*
X113373055Y-113115982D01*
X113649433Y-113115982D01*
X113655231Y-113145507D01*
X113672330Y-113168799D01*
X113698984Y-113183677D01*
X113739619Y-113189316D01*
X113784545Y-113183751D01*
X113826020Y-113167151D01*
X113861056Y-113141671D01*
X113882745Y-113112990D01*
X113894905Y-113078081D01*
X113899476Y-113029825D01*
X113899476Y-112986106D01*
X113779919Y-113021765D01*
X113703854Y-113046729D01*
X113672636Y-113065484D01*
X113655042Y-113089643D01*
X113649433Y-113115982D01*
X113373055Y-113115982D01*
X113376449Y-113084318D01*
X113392694Y-113039664D01*
X113419234Y-113001676D01*
X113455465Y-112972380D01*
X113512666Y-112945556D01*
X113598203Y-112922541D01*
X113801107Y-112878517D01*
X113899476Y-112845422D01*
X113893344Y-112798429D01*
X113878288Y-112772515D01*
X113851966Y-112757708D01*
X113803855Y-112751632D01*
X113740556Y-112757884D01*
X113701395Y-112773492D01*
X113678597Y-112796136D01*
X113658347Y-112837606D01*
X113392611Y-112810251D01*
X113412037Y-112745504D01*
X113435964Y-112700952D01*
X113469456Y-112664670D01*
X113517602Y-112631770D01*
X113559999Y-112614002D01*
X113622810Y-112599103D01*
X113691201Y-112590505D01*
X113767646Y-112587501D01*
X113886513Y-112591461D01*
G37*
G36*
X114340640Y-112603133D02*
G01*
X114600881Y-112603133D01*
X114600881Y-112721896D01*
X114628744Y-112672096D01*
X114654520Y-112638128D01*
X114678428Y-112616383D01*
X114706380Y-112600671D01*
X114738929Y-112590926D01*
X114777163Y-112587501D01*
X114817378Y-112591281D01*
X114861911Y-112603310D01*
X114911741Y-112624993D01*
X114825645Y-112823012D01*
X114778450Y-112806771D01*
X114747793Y-112802435D01*
X114713771Y-112807568D01*
X114686073Y-112822379D01*
X114663101Y-112847681D01*
X114642008Y-112893163D01*
X114626369Y-112968520D01*
X114620054Y-113086062D01*
X114620054Y-113330000D01*
X114340640Y-113330000D01*
X114340640Y-112603133D01*
G37*
G36*
X115523752Y-113044724D02*
G01*
X115788084Y-113075987D01*
X115770070Y-113129228D01*
X115746149Y-113176544D01*
X115716338Y-113218625D01*
X115680455Y-113255457D01*
X115638247Y-113286627D01*
X115588965Y-113312292D01*
X115536188Y-113329926D01*
X115471273Y-113341450D01*
X115391861Y-113345631D01*
X115281415Y-113339720D01*
X115199581Y-113324138D01*
X115150036Y-113306537D01*
X115106192Y-113283336D01*
X115067384Y-113254528D01*
X115017938Y-113202122D01*
X114980617Y-113141627D01*
X114964139Y-113097228D01*
X114953237Y-113040781D01*
X114949232Y-112969619D01*
X114953933Y-112895766D01*
X114967039Y-112834355D01*
X114987456Y-112783323D01*
X115020330Y-112731901D01*
X115063965Y-112685443D01*
X115114185Y-112646999D01*
X115163738Y-112620963D01*
X115218969Y-112603326D01*
X115287543Y-112591728D01*
X115372077Y-112587501D01*
X115463044Y-112592283D01*
X115536644Y-112605405D01*
X115595778Y-112625380D01*
X115642943Y-112651249D01*
X115685403Y-112686109D01*
X115721196Y-112728174D01*
X115750669Y-112778271D01*
X115773735Y-112837606D01*
X115512090Y-112872777D01*
X115494173Y-112829308D01*
X115467332Y-112799687D01*
X115431006Y-112781710D01*
X115380259Y-112775080D01*
X115336542Y-112780781D01*
X115299888Y-112797215D01*
X115268579Y-112824783D01*
X115246238Y-112860425D01*
X115231439Y-112909184D01*
X115225898Y-112975115D01*
X115231256Y-113033527D01*
X115245790Y-113077905D01*
X115268213Y-113111463D01*
X115299025Y-113137336D01*
X115334506Y-113152735D01*
X115376168Y-113158053D01*
X115411682Y-113154770D01*
X115441975Y-113145412D01*
X115468065Y-113130270D01*
X115489944Y-113109432D01*
X115508558Y-113081424D01*
X115523752Y-113044724D01*
G37*
G36*
X115925959Y-112329581D02*
G01*
X116203968Y-112329581D01*
X116203968Y-112517159D01*
X115925959Y-112517159D01*
X115925959Y-112329581D01*
G37*
G36*
X115925959Y-112603133D02*
G01*
X116203968Y-112603133D01*
X116203968Y-113330000D01*
X115925959Y-113330000D01*
X115925959Y-112603133D01*
G37*
G36*
X116850490Y-112593275D02*
G01*
X116925709Y-112609561D01*
X116989898Y-112635266D01*
X117044745Y-112669945D01*
X117091486Y-112713836D01*
X117130293Y-112767117D01*
X117158036Y-112825891D01*
X117175054Y-112891218D01*
X117180940Y-112964490D01*
X117173635Y-113046382D01*
X117152591Y-113118210D01*
X117118259Y-113181888D01*
X117069931Y-113238775D01*
X117024054Y-113275948D01*
X116971525Y-113305367D01*
X116911370Y-113327115D01*
X116842332Y-113340812D01*
X116762918Y-113345631D01*
X116675672Y-113339506D01*
X116600706Y-113322136D01*
X116536039Y-113294503D01*
X116480085Y-113256849D01*
X116432025Y-113209711D01*
X116395380Y-113158115D01*
X116369183Y-113101441D01*
X116353128Y-113038708D01*
X116347583Y-112968642D01*
X116347804Y-112966200D01*
X116626264Y-112966200D01*
X116631430Y-113030578D01*
X116645111Y-113077496D01*
X116665526Y-113111158D01*
X116694354Y-113137468D01*
X116726815Y-113152821D01*
X116764262Y-113158053D01*
X116802211Y-113152844D01*
X116834648Y-113137661D01*
X116862997Y-113111830D01*
X116882871Y-113078610D01*
X116896409Y-113030786D01*
X116901587Y-112963452D01*
X116896499Y-112900995D01*
X116882957Y-112855037D01*
X116862630Y-112821669D01*
X116834133Y-112795436D01*
X116802460Y-112780230D01*
X116766338Y-112775080D01*
X116727978Y-112780381D01*
X116694966Y-112795882D01*
X116665893Y-112822341D01*
X116645212Y-112856199D01*
X116631439Y-112902830D01*
X116626264Y-112966200D01*
X116347804Y-112966200D01*
X116354911Y-112887533D01*
X116376069Y-112816053D01*
X116410690Y-112752343D01*
X116459569Y-112695090D01*
X116505990Y-112657401D01*
X116558470Y-112627737D01*
X116617873Y-112605936D01*
X116685329Y-112592282D01*
X116762185Y-112587501D01*
X116850490Y-112593275D01*
G37*
G36*
X117700139Y-112329581D02*
G01*
X118023944Y-112329581D01*
X118249380Y-113049548D01*
X118471397Y-112329581D01*
X118785615Y-112329581D01*
X118414000Y-113330000D01*
X118078593Y-113330000D01*
X117700139Y-112329581D01*
G37*
G36*
X118901814Y-112329581D02*
G01*
X119179823Y-112329581D01*
X119179823Y-112517159D01*
X118901814Y-112517159D01*
X118901814Y-112329581D01*
G37*
G36*
X118901814Y-112603133D02*
G01*
X119179823Y-112603133D01*
X119179823Y-113330000D01*
X118901814Y-113330000D01*
X118901814Y-112603133D01*
G37*
G36*
X119357571Y-112603133D02*
G01*
X119616468Y-112603133D01*
X119616468Y-112722323D01*
X119657606Y-112676295D01*
X119696647Y-112642373D01*
X119733949Y-112618642D01*
X119774732Y-112601879D01*
X119822560Y-112591265D01*
X119878785Y-112587501D01*
X119935894Y-112592230D01*
X119984017Y-112605591D01*
X120024803Y-112626901D01*
X120059464Y-112656256D01*
X120086218Y-112692126D01*
X120106566Y-112737855D01*
X120119874Y-112795709D01*
X120124738Y-112868503D01*
X120124738Y-113330000D01*
X119845324Y-113330000D01*
X119845324Y-112931273D01*
X119841861Y-112886212D01*
X119832940Y-112855274D01*
X119820045Y-112834675D01*
X119801468Y-112819265D01*
X119778244Y-112809745D01*
X119748970Y-112806343D01*
X119717062Y-112810685D01*
X119690145Y-112823269D01*
X119666966Y-112844567D01*
X119651251Y-112872231D01*
X119640027Y-112915893D01*
X119635580Y-112981831D01*
X119635580Y-113330000D01*
X119357571Y-113330000D01*
X119357571Y-112603133D01*
G37*
G36*
X120300837Y-112329581D02*
G01*
X120578846Y-112329581D01*
X120578846Y-112517159D01*
X120300837Y-112517159D01*
X120300837Y-112329581D01*
G37*
G36*
X120300837Y-112603133D02*
G01*
X120578846Y-112603133D01*
X120578846Y-113330000D01*
X120300837Y-113330000D01*
X120300837Y-112603133D01*
G37*
G36*
X121297653Y-113044724D02*
G01*
X121561985Y-113075987D01*
X121543971Y-113129228D01*
X121520050Y-113176544D01*
X121490239Y-113218625D01*
X121454356Y-113255457D01*
X121412148Y-113286627D01*
X121362866Y-113312292D01*
X121310089Y-113329926D01*
X121245173Y-113341450D01*
X121165762Y-113345631D01*
X121055315Y-113339720D01*
X120973482Y-113324138D01*
X120923937Y-113306537D01*
X120880093Y-113283336D01*
X120841285Y-113254528D01*
X120791839Y-113202122D01*
X120754518Y-113141627D01*
X120738040Y-113097228D01*
X120727138Y-113040781D01*
X120723133Y-112969619D01*
X120727833Y-112895766D01*
X120740940Y-112834355D01*
X120761357Y-112783323D01*
X120794230Y-112731901D01*
X120837866Y-112685443D01*
X120888085Y-112646999D01*
X120937639Y-112620963D01*
X120992870Y-112603326D01*
X121061444Y-112591728D01*
X121145978Y-112587501D01*
X121236945Y-112592283D01*
X121310545Y-112605405D01*
X121369679Y-112625380D01*
X121416844Y-112651249D01*
X121459304Y-112686109D01*
X121495097Y-112728174D01*
X121524570Y-112778271D01*
X121547636Y-112837606D01*
X121285990Y-112872777D01*
X121268074Y-112829308D01*
X121241233Y-112799687D01*
X121204907Y-112781710D01*
X121154160Y-112775080D01*
X121110443Y-112780781D01*
X121073789Y-112797215D01*
X121042480Y-112824783D01*
X121020139Y-112860425D01*
X121005340Y-112909184D01*
X120999799Y-112975115D01*
X121005157Y-113033527D01*
X121019691Y-113077905D01*
X121042114Y-113111463D01*
X121072926Y-113137336D01*
X121108407Y-113152735D01*
X121150069Y-113158053D01*
X121185583Y-113154770D01*
X121215876Y-113145412D01*
X121241966Y-113130270D01*
X121263845Y-113109432D01*
X121282459Y-113081424D01*
X121297653Y-113044724D01*
G37*
G36*
X121699860Y-112329581D02*
G01*
X121977869Y-112329581D01*
X121977869Y-112517159D01*
X121699860Y-112517159D01*
X121699860Y-112329581D01*
G37*
G36*
X121699860Y-112603133D02*
G01*
X121977869Y-112603133D01*
X121977869Y-113330000D01*
X121699860Y-113330000D01*
X121699860Y-112603133D01*
G37*
G36*
X122920036Y-113330000D02*
G01*
X122660467Y-113330000D01*
X122660467Y-113211114D01*
X122619315Y-113257271D01*
X122580380Y-113291154D01*
X122543292Y-113314734D01*
X122502754Y-113331329D01*
X122454849Y-113341878D01*
X122398150Y-113345631D01*
X122341404Y-113340917D01*
X122293484Y-113327585D01*
X122252773Y-113306296D01*
X122218082Y-113276938D01*
X122191329Y-113241038D01*
X122171002Y-113195375D01*
X122157720Y-113137721D01*
X122152869Y-113065301D01*
X122152869Y-112603133D01*
X122432283Y-112603133D01*
X122432283Y-113001310D01*
X122435737Y-113046326D01*
X122444653Y-113077369D01*
X122457562Y-113098152D01*
X122476163Y-113113743D01*
X122499388Y-113123357D01*
X122528637Y-113126789D01*
X122560076Y-113122482D01*
X122586871Y-113109940D01*
X122610214Y-113088627D01*
X122626163Y-113060927D01*
X122637529Y-113017312D01*
X122642027Y-112951545D01*
X122642027Y-112603133D01*
X122920036Y-112603133D01*
X122920036Y-113330000D01*
G37*
G36*
X123039471Y-113130697D02*
G01*
X123315404Y-113103342D01*
X123336914Y-113146210D01*
X123363215Y-113172463D01*
X123397399Y-113187591D01*
X123445219Y-113193224D01*
X123496958Y-113186702D01*
X123531926Y-113169471D01*
X123550066Y-113149229D01*
X123555861Y-113125324D01*
X123552507Y-113107216D01*
X123542502Y-113092079D01*
X123524476Y-113079101D01*
X123492619Y-113068502D01*
X123404919Y-113050586D01*
X123271493Y-113023811D01*
X123203724Y-113003935D01*
X123168369Y-112986420D01*
X123136860Y-112962363D01*
X123108775Y-112931151D01*
X123087334Y-112895400D01*
X123074537Y-112856772D01*
X123070184Y-112814342D01*
X123074969Y-112767984D01*
X123088850Y-112727170D01*
X123111828Y-112690694D01*
X123142347Y-112659624D01*
X123180217Y-112633778D01*
X123226622Y-112613147D01*
X123276109Y-112599836D01*
X123340409Y-112590843D01*
X123422688Y-112587501D01*
X123543960Y-112593429D01*
X123614296Y-112607468D01*
X123671638Y-112633311D01*
X123717428Y-112669384D01*
X123754106Y-112716827D01*
X123786121Y-112782896D01*
X123522400Y-112806343D01*
X123508290Y-112776622D01*
X123488267Y-112757067D01*
X123452935Y-112741504D01*
X123409010Y-112736001D01*
X123365783Y-112740802D01*
X123340317Y-112752670D01*
X123324010Y-112771435D01*
X123318824Y-112793093D01*
X123325393Y-112815958D01*
X123346179Y-112833148D01*
X123381652Y-112844378D01*
X123465003Y-112857634D01*
X123594394Y-112878173D01*
X123671266Y-112901170D01*
X123713909Y-112923098D01*
X123748020Y-112949610D01*
X123774764Y-112980793D01*
X123794805Y-113016631D01*
X123806672Y-113054282D01*
X123810668Y-113094488D01*
X123806592Y-113135167D01*
X123794190Y-113175545D01*
X123772749Y-113216304D01*
X123743878Y-113251860D01*
X123704678Y-113283286D01*
X123653192Y-113310582D01*
X123597577Y-113328787D01*
X123524786Y-113341062D01*
X123430870Y-113345631D01*
X123326818Y-113341083D01*
X123248153Y-113329008D01*
X123189896Y-113311402D01*
X123147732Y-113289699D01*
X123109329Y-113258774D01*
X123078815Y-113222439D01*
X123055556Y-113180084D01*
X123039471Y-113130697D01*
G37*
D13*
X120697666Y-64936985D02*
X120697666Y-65656652D01*
X120697666Y-65656652D02*
X120740000Y-65741318D01*
X120740000Y-65741318D02*
X120782333Y-65783652D01*
X120782333Y-65783652D02*
X120867000Y-65825985D01*
X120867000Y-65825985D02*
X121036333Y-65825985D01*
X121036333Y-65825985D02*
X121121000Y-65783652D01*
X121121000Y-65783652D02*
X121163333Y-65741318D01*
X121163333Y-65741318D02*
X121205666Y-65656652D01*
X121205666Y-65656652D02*
X121205666Y-64936985D01*
X122094666Y-65825985D02*
X121586666Y-65825985D01*
X121840666Y-65825985D02*
X121840666Y-64936985D01*
X121840666Y-64936985D02*
X121755999Y-65063985D01*
X121755999Y-65063985D02*
X121671333Y-65148652D01*
X121671333Y-65148652D02*
X121586666Y-65190985D01*
D12*
X116613095Y-61787200D02*
X116755952Y-61834819D01*
X116755952Y-61834819D02*
X116994047Y-61834819D01*
X116994047Y-61834819D02*
X117089285Y-61787200D01*
X117089285Y-61787200D02*
X117136904Y-61739580D01*
X117136904Y-61739580D02*
X117184523Y-61644342D01*
X117184523Y-61644342D02*
X117184523Y-61549104D01*
X117184523Y-61549104D02*
X117136904Y-61453866D01*
X117136904Y-61453866D02*
X117089285Y-61406247D01*
X117089285Y-61406247D02*
X116994047Y-61358628D01*
X116994047Y-61358628D02*
X116803571Y-61311009D01*
X116803571Y-61311009D02*
X116708333Y-61263390D01*
X116708333Y-61263390D02*
X116660714Y-61215771D01*
X116660714Y-61215771D02*
X116613095Y-61120533D01*
X116613095Y-61120533D02*
X116613095Y-61025295D01*
X116613095Y-61025295D02*
X116660714Y-60930057D01*
X116660714Y-60930057D02*
X116708333Y-60882438D01*
X116708333Y-60882438D02*
X116803571Y-60834819D01*
X116803571Y-60834819D02*
X117041666Y-60834819D01*
X117041666Y-60834819D02*
X117184523Y-60882438D01*
X117994047Y-61787200D02*
X117898809Y-61834819D01*
X117898809Y-61834819D02*
X117708333Y-61834819D01*
X117708333Y-61834819D02*
X117613095Y-61787200D01*
X117613095Y-61787200D02*
X117565476Y-61691961D01*
X117565476Y-61691961D02*
X117565476Y-61311009D01*
X117565476Y-61311009D02*
X117613095Y-61215771D01*
X117613095Y-61215771D02*
X117708333Y-61168152D01*
X117708333Y-61168152D02*
X117898809Y-61168152D01*
X117898809Y-61168152D02*
X117994047Y-61215771D01*
X117994047Y-61215771D02*
X118041666Y-61311009D01*
X118041666Y-61311009D02*
X118041666Y-61406247D01*
X118041666Y-61406247D02*
X117565476Y-61501485D01*
X118851190Y-61787200D02*
X118755952Y-61834819D01*
X118755952Y-61834819D02*
X118565476Y-61834819D01*
X118565476Y-61834819D02*
X118470238Y-61787200D01*
X118470238Y-61787200D02*
X118422619Y-61691961D01*
X118422619Y-61691961D02*
X118422619Y-61311009D01*
X118422619Y-61311009D02*
X118470238Y-61215771D01*
X118470238Y-61215771D02*
X118565476Y-61168152D01*
X118565476Y-61168152D02*
X118755952Y-61168152D01*
X118755952Y-61168152D02*
X118851190Y-61215771D01*
X118851190Y-61215771D02*
X118898809Y-61311009D01*
X118898809Y-61311009D02*
X118898809Y-61406247D01*
X118898809Y-61406247D02*
X118422619Y-61501485D01*
X119708333Y-61787200D02*
X119613095Y-61834819D01*
X119613095Y-61834819D02*
X119422619Y-61834819D01*
X119422619Y-61834819D02*
X119327381Y-61787200D01*
X119327381Y-61787200D02*
X119279762Y-61691961D01*
X119279762Y-61691961D02*
X119279762Y-61311009D01*
X119279762Y-61311009D02*
X119327381Y-61215771D01*
X119327381Y-61215771D02*
X119422619Y-61168152D01*
X119422619Y-61168152D02*
X119613095Y-61168152D01*
X119613095Y-61168152D02*
X119708333Y-61215771D01*
X119708333Y-61215771D02*
X119755952Y-61311009D01*
X119755952Y-61311009D02*
X119755952Y-61406247D01*
X119755952Y-61406247D02*
X119279762Y-61501485D01*
X120613095Y-61834819D02*
X120613095Y-60834819D01*
X120613095Y-61787200D02*
X120517857Y-61834819D01*
X120517857Y-61834819D02*
X120327381Y-61834819D01*
X120327381Y-61834819D02*
X120232143Y-61787200D01*
X120232143Y-61787200D02*
X120184524Y-61739580D01*
X120184524Y-61739580D02*
X120136905Y-61644342D01*
X120136905Y-61644342D02*
X120136905Y-61358628D01*
X120136905Y-61358628D02*
X120184524Y-61263390D01*
X120184524Y-61263390D02*
X120232143Y-61215771D01*
X120232143Y-61215771D02*
X120327381Y-61168152D01*
X120327381Y-61168152D02*
X120517857Y-61168152D01*
X120517857Y-61168152D02*
X120613095Y-61215771D01*
X121803572Y-61787200D02*
X121946429Y-61834819D01*
X121946429Y-61834819D02*
X122184524Y-61834819D01*
X122184524Y-61834819D02*
X122279762Y-61787200D01*
X122279762Y-61787200D02*
X122327381Y-61739580D01*
X122327381Y-61739580D02*
X122375000Y-61644342D01*
X122375000Y-61644342D02*
X122375000Y-61549104D01*
X122375000Y-61549104D02*
X122327381Y-61453866D01*
X122327381Y-61453866D02*
X122279762Y-61406247D01*
X122279762Y-61406247D02*
X122184524Y-61358628D01*
X122184524Y-61358628D02*
X121994048Y-61311009D01*
X121994048Y-61311009D02*
X121898810Y-61263390D01*
X121898810Y-61263390D02*
X121851191Y-61215771D01*
X121851191Y-61215771D02*
X121803572Y-61120533D01*
X121803572Y-61120533D02*
X121803572Y-61025295D01*
X121803572Y-61025295D02*
X121851191Y-60930057D01*
X121851191Y-60930057D02*
X121898810Y-60882438D01*
X121898810Y-60882438D02*
X121994048Y-60834819D01*
X121994048Y-60834819D02*
X122232143Y-60834819D01*
X122232143Y-60834819D02*
X122375000Y-60882438D01*
X122660715Y-61168152D02*
X123041667Y-61168152D01*
X122803572Y-60834819D02*
X122803572Y-61691961D01*
X122803572Y-61691961D02*
X122851191Y-61787200D01*
X122851191Y-61787200D02*
X122946429Y-61834819D01*
X122946429Y-61834819D02*
X123041667Y-61834819D01*
X123803572Y-61168152D02*
X123803572Y-61834819D01*
X123375001Y-61168152D02*
X123375001Y-61691961D01*
X123375001Y-61691961D02*
X123422620Y-61787200D01*
X123422620Y-61787200D02*
X123517858Y-61834819D01*
X123517858Y-61834819D02*
X123660715Y-61834819D01*
X123660715Y-61834819D02*
X123755953Y-61787200D01*
X123755953Y-61787200D02*
X123803572Y-61739580D01*
X124708334Y-61834819D02*
X124708334Y-60834819D01*
X124708334Y-61787200D02*
X124613096Y-61834819D01*
X124613096Y-61834819D02*
X124422620Y-61834819D01*
X124422620Y-61834819D02*
X124327382Y-61787200D01*
X124327382Y-61787200D02*
X124279763Y-61739580D01*
X124279763Y-61739580D02*
X124232144Y-61644342D01*
X124232144Y-61644342D02*
X124232144Y-61358628D01*
X124232144Y-61358628D02*
X124279763Y-61263390D01*
X124279763Y-61263390D02*
X124327382Y-61215771D01*
X124327382Y-61215771D02*
X124422620Y-61168152D01*
X124422620Y-61168152D02*
X124613096Y-61168152D01*
X124613096Y-61168152D02*
X124708334Y-61215771D01*
X125184525Y-61834819D02*
X125184525Y-61168152D01*
X125184525Y-60834819D02*
X125136906Y-60882438D01*
X125136906Y-60882438D02*
X125184525Y-60930057D01*
X125184525Y-60930057D02*
X125232144Y-60882438D01*
X125232144Y-60882438D02*
X125184525Y-60834819D01*
X125184525Y-60834819D02*
X125184525Y-60930057D01*
X125803572Y-61834819D02*
X125708334Y-61787200D01*
X125708334Y-61787200D02*
X125660715Y-61739580D01*
X125660715Y-61739580D02*
X125613096Y-61644342D01*
X125613096Y-61644342D02*
X125613096Y-61358628D01*
X125613096Y-61358628D02*
X125660715Y-61263390D01*
X125660715Y-61263390D02*
X125708334Y-61215771D01*
X125708334Y-61215771D02*
X125803572Y-61168152D01*
X125803572Y-61168152D02*
X125946429Y-61168152D01*
X125946429Y-61168152D02*
X126041667Y-61215771D01*
X126041667Y-61215771D02*
X126089286Y-61263390D01*
X126089286Y-61263390D02*
X126136905Y-61358628D01*
X126136905Y-61358628D02*
X126136905Y-61644342D01*
X126136905Y-61644342D02*
X126089286Y-61739580D01*
X126089286Y-61739580D02*
X126041667Y-61787200D01*
X126041667Y-61787200D02*
X125946429Y-61834819D01*
X125946429Y-61834819D02*
X125803572Y-61834819D01*
X120226191Y-59454819D02*
X120892857Y-60454819D01*
X120892857Y-59454819D02*
X120226191Y-60454819D01*
X121273810Y-60454819D02*
X121273810Y-59454819D01*
X121702381Y-60169104D02*
X122178571Y-60169104D01*
X121607143Y-60454819D02*
X121940476Y-59454819D01*
X121940476Y-59454819D02*
X122273809Y-60454819D01*
X122797619Y-59454819D02*
X122988095Y-59454819D01*
X122988095Y-59454819D02*
X123083333Y-59502438D01*
X123083333Y-59502438D02*
X123178571Y-59597676D01*
X123178571Y-59597676D02*
X123226190Y-59788152D01*
X123226190Y-59788152D02*
X123226190Y-60121485D01*
X123226190Y-60121485D02*
X123178571Y-60311961D01*
X123178571Y-60311961D02*
X123083333Y-60407200D01*
X123083333Y-60407200D02*
X122988095Y-60454819D01*
X122988095Y-60454819D02*
X122797619Y-60454819D01*
X122797619Y-60454819D02*
X122702381Y-60407200D01*
X122702381Y-60407200D02*
X122607143Y-60311961D01*
X122607143Y-60311961D02*
X122559524Y-60121485D01*
X122559524Y-60121485D02*
X122559524Y-59788152D01*
X122559524Y-59788152D02*
X122607143Y-59597676D01*
X122607143Y-59597676D02*
X122702381Y-59502438D01*
X122702381Y-59502438D02*
X122797619Y-59454819D01*
X160086667Y-75033200D02*
X160229524Y-75080819D01*
X160229524Y-75080819D02*
X160467619Y-75080819D01*
X160467619Y-75080819D02*
X160562857Y-75033200D01*
X160562857Y-75033200D02*
X160610476Y-74985580D01*
X160610476Y-74985580D02*
X160658095Y-74890342D01*
X160658095Y-74890342D02*
X160658095Y-74795104D01*
X160658095Y-74795104D02*
X160610476Y-74699866D01*
X160610476Y-74699866D02*
X160562857Y-74652247D01*
X160562857Y-74652247D02*
X160467619Y-74604628D01*
X160467619Y-74604628D02*
X160277143Y-74557009D01*
X160277143Y-74557009D02*
X160181905Y-74509390D01*
X160181905Y-74509390D02*
X160134286Y-74461771D01*
X160134286Y-74461771D02*
X160086667Y-74366533D01*
X160086667Y-74366533D02*
X160086667Y-74271295D01*
X160086667Y-74271295D02*
X160134286Y-74176057D01*
X160134286Y-74176057D02*
X160181905Y-74128438D01*
X160181905Y-74128438D02*
X160277143Y-74080819D01*
X160277143Y-74080819D02*
X160515238Y-74080819D01*
X160515238Y-74080819D02*
X160658095Y-74128438D01*
X160991429Y-74080819D02*
X161229524Y-75080819D01*
X161229524Y-75080819D02*
X161420000Y-74366533D01*
X161420000Y-74366533D02*
X161610476Y-75080819D01*
X161610476Y-75080819D02*
X161848572Y-74080819D01*
X162134286Y-74080819D02*
X162753333Y-74080819D01*
X162753333Y-74080819D02*
X162420000Y-74461771D01*
X162420000Y-74461771D02*
X162562857Y-74461771D01*
X162562857Y-74461771D02*
X162658095Y-74509390D01*
X162658095Y-74509390D02*
X162705714Y-74557009D01*
X162705714Y-74557009D02*
X162753333Y-74652247D01*
X162753333Y-74652247D02*
X162753333Y-74890342D01*
X162753333Y-74890342D02*
X162705714Y-74985580D01*
X162705714Y-74985580D02*
X162658095Y-75033200D01*
X162658095Y-75033200D02*
X162562857Y-75080819D01*
X162562857Y-75080819D02*
X162277143Y-75080819D01*
X162277143Y-75080819D02*
X162181905Y-75033200D01*
X162181905Y-75033200D02*
X162134286Y-74985580D01*
X120086667Y-75033200D02*
X120229524Y-75080819D01*
X120229524Y-75080819D02*
X120467619Y-75080819D01*
X120467619Y-75080819D02*
X120562857Y-75033200D01*
X120562857Y-75033200D02*
X120610476Y-74985580D01*
X120610476Y-74985580D02*
X120658095Y-74890342D01*
X120658095Y-74890342D02*
X120658095Y-74795104D01*
X120658095Y-74795104D02*
X120610476Y-74699866D01*
X120610476Y-74699866D02*
X120562857Y-74652247D01*
X120562857Y-74652247D02*
X120467619Y-74604628D01*
X120467619Y-74604628D02*
X120277143Y-74557009D01*
X120277143Y-74557009D02*
X120181905Y-74509390D01*
X120181905Y-74509390D02*
X120134286Y-74461771D01*
X120134286Y-74461771D02*
X120086667Y-74366533D01*
X120086667Y-74366533D02*
X120086667Y-74271295D01*
X120086667Y-74271295D02*
X120134286Y-74176057D01*
X120134286Y-74176057D02*
X120181905Y-74128438D01*
X120181905Y-74128438D02*
X120277143Y-74080819D01*
X120277143Y-74080819D02*
X120515238Y-74080819D01*
X120515238Y-74080819D02*
X120658095Y-74128438D01*
X120991429Y-74080819D02*
X121229524Y-75080819D01*
X121229524Y-75080819D02*
X121420000Y-74366533D01*
X121420000Y-74366533D02*
X121610476Y-75080819D01*
X121610476Y-75080819D02*
X121848572Y-74080819D01*
X122753333Y-75080819D02*
X122181905Y-75080819D01*
X122467619Y-75080819D02*
X122467619Y-74080819D01*
X122467619Y-74080819D02*
X122372381Y-74223676D01*
X122372381Y-74223676D02*
X122277143Y-74318914D01*
X122277143Y-74318914D02*
X122181905Y-74366533D01*
X140086667Y-75033200D02*
X140229524Y-75080819D01*
X140229524Y-75080819D02*
X140467619Y-75080819D01*
X140467619Y-75080819D02*
X140562857Y-75033200D01*
X140562857Y-75033200D02*
X140610476Y-74985580D01*
X140610476Y-74985580D02*
X140658095Y-74890342D01*
X140658095Y-74890342D02*
X140658095Y-74795104D01*
X140658095Y-74795104D02*
X140610476Y-74699866D01*
X140610476Y-74699866D02*
X140562857Y-74652247D01*
X140562857Y-74652247D02*
X140467619Y-74604628D01*
X140467619Y-74604628D02*
X140277143Y-74557009D01*
X140277143Y-74557009D02*
X140181905Y-74509390D01*
X140181905Y-74509390D02*
X140134286Y-74461771D01*
X140134286Y-74461771D02*
X140086667Y-74366533D01*
X140086667Y-74366533D02*
X140086667Y-74271295D01*
X140086667Y-74271295D02*
X140134286Y-74176057D01*
X140134286Y-74176057D02*
X140181905Y-74128438D01*
X140181905Y-74128438D02*
X140277143Y-74080819D01*
X140277143Y-74080819D02*
X140515238Y-74080819D01*
X140515238Y-74080819D02*
X140658095Y-74128438D01*
X140991429Y-74080819D02*
X141229524Y-75080819D01*
X141229524Y-75080819D02*
X141420000Y-74366533D01*
X141420000Y-74366533D02*
X141610476Y-75080819D01*
X141610476Y-75080819D02*
X141848572Y-74080819D01*
X142181905Y-74176057D02*
X142229524Y-74128438D01*
X142229524Y-74128438D02*
X142324762Y-74080819D01*
X142324762Y-74080819D02*
X142562857Y-74080819D01*
X142562857Y-74080819D02*
X142658095Y-74128438D01*
X142658095Y-74128438D02*
X142705714Y-74176057D01*
X142705714Y-74176057D02*
X142753333Y-74271295D01*
X142753333Y-74271295D02*
X142753333Y-74366533D01*
X142753333Y-74366533D02*
X142705714Y-74509390D01*
X142705714Y-74509390D02*
X142134286Y-75080819D01*
X142134286Y-75080819D02*
X142753333Y-75080819D01*
X109166666Y-109304819D02*
X108833333Y-108828628D01*
X108595238Y-109304819D02*
X108595238Y-108304819D01*
X108595238Y-108304819D02*
X108976190Y-108304819D01*
X108976190Y-108304819D02*
X109071428Y-108352438D01*
X109071428Y-108352438D02*
X109119047Y-108400057D01*
X109119047Y-108400057D02*
X109166666Y-108495295D01*
X109166666Y-108495295D02*
X109166666Y-108638152D01*
X109166666Y-108638152D02*
X109119047Y-108733390D01*
X109119047Y-108733390D02*
X109071428Y-108781009D01*
X109071428Y-108781009D02*
X108976190Y-108828628D01*
X108976190Y-108828628D02*
X108595238Y-108828628D01*
X109595238Y-108781009D02*
X109928571Y-108781009D01*
X110071428Y-109304819D02*
X109595238Y-109304819D01*
X109595238Y-109304819D02*
X109595238Y-108304819D01*
X109595238Y-108304819D02*
X110071428Y-108304819D01*
X110833333Y-108781009D02*
X110500000Y-108781009D01*
X110500000Y-109304819D02*
X110500000Y-108304819D01*
X110500000Y-108304819D02*
X110976190Y-108304819D01*
X111500000Y-108304819D02*
X111500000Y-108542914D01*
X111261905Y-108447676D02*
X111500000Y-108542914D01*
X111500000Y-108542914D02*
X111738095Y-108447676D01*
X111357143Y-108733390D02*
X111500000Y-108542914D01*
X111500000Y-108542914D02*
X111642857Y-108733390D01*
X112261905Y-108304819D02*
X112261905Y-108542914D01*
X112023810Y-108447676D02*
X112261905Y-108542914D01*
X112261905Y-108542914D02*
X112500000Y-108447676D01*
X112119048Y-108733390D02*
X112261905Y-108542914D01*
X112261905Y-108542914D02*
X112404762Y-108733390D01*
X173990476Y-85107200D02*
X174133333Y-85154819D01*
X174133333Y-85154819D02*
X174371428Y-85154819D01*
X174371428Y-85154819D02*
X174466666Y-85107200D01*
X174466666Y-85107200D02*
X174514285Y-85059580D01*
X174514285Y-85059580D02*
X174561904Y-84964342D01*
X174561904Y-84964342D02*
X174561904Y-84869104D01*
X174561904Y-84869104D02*
X174514285Y-84773866D01*
X174514285Y-84773866D02*
X174466666Y-84726247D01*
X174466666Y-84726247D02*
X174371428Y-84678628D01*
X174371428Y-84678628D02*
X174180952Y-84631009D01*
X174180952Y-84631009D02*
X174085714Y-84583390D01*
X174085714Y-84583390D02*
X174038095Y-84535771D01*
X174038095Y-84535771D02*
X173990476Y-84440533D01*
X173990476Y-84440533D02*
X173990476Y-84345295D01*
X173990476Y-84345295D02*
X174038095Y-84250057D01*
X174038095Y-84250057D02*
X174085714Y-84202438D01*
X174085714Y-84202438D02*
X174180952Y-84154819D01*
X174180952Y-84154819D02*
X174419047Y-84154819D01*
X174419047Y-84154819D02*
X174561904Y-84202438D01*
X174895238Y-84154819D02*
X175133333Y-85154819D01*
X175133333Y-85154819D02*
X175323809Y-84440533D01*
X175323809Y-84440533D02*
X175514285Y-85154819D01*
X175514285Y-85154819D02*
X175752381Y-84154819D01*
X176657142Y-85154819D02*
X176085714Y-85154819D01*
X176371428Y-85154819D02*
X176371428Y-84154819D01*
X176371428Y-84154819D02*
X176276190Y-84297676D01*
X176276190Y-84297676D02*
X176180952Y-84392914D01*
X176180952Y-84392914D02*
X176085714Y-84440533D01*
X177276190Y-84154819D02*
X177371428Y-84154819D01*
X177371428Y-84154819D02*
X177466666Y-84202438D01*
X177466666Y-84202438D02*
X177514285Y-84250057D01*
X177514285Y-84250057D02*
X177561904Y-84345295D01*
X177561904Y-84345295D02*
X177609523Y-84535771D01*
X177609523Y-84535771D02*
X177609523Y-84773866D01*
X177609523Y-84773866D02*
X177561904Y-84964342D01*
X177561904Y-84964342D02*
X177514285Y-85059580D01*
X177514285Y-85059580D02*
X177466666Y-85107200D01*
X177466666Y-85107200D02*
X177371428Y-85154819D01*
X177371428Y-85154819D02*
X177276190Y-85154819D01*
X177276190Y-85154819D02*
X177180952Y-85107200D01*
X177180952Y-85107200D02*
X177133333Y-85059580D01*
X177133333Y-85059580D02*
X177085714Y-84964342D01*
X177085714Y-84964342D02*
X177038095Y-84773866D01*
X177038095Y-84773866D02*
X177038095Y-84535771D01*
X177038095Y-84535771D02*
X177085714Y-84345295D01*
X177085714Y-84345295D02*
X177133333Y-84250057D01*
X177133333Y-84250057D02*
X177180952Y-84202438D01*
X177180952Y-84202438D02*
X177276190Y-84154819D01*
X120166667Y-94533200D02*
X120309524Y-94580819D01*
X120309524Y-94580819D02*
X120547619Y-94580819D01*
X120547619Y-94580819D02*
X120642857Y-94533200D01*
X120642857Y-94533200D02*
X120690476Y-94485580D01*
X120690476Y-94485580D02*
X120738095Y-94390342D01*
X120738095Y-94390342D02*
X120738095Y-94295104D01*
X120738095Y-94295104D02*
X120690476Y-94199866D01*
X120690476Y-94199866D02*
X120642857Y-94152247D01*
X120642857Y-94152247D02*
X120547619Y-94104628D01*
X120547619Y-94104628D02*
X120357143Y-94057009D01*
X120357143Y-94057009D02*
X120261905Y-94009390D01*
X120261905Y-94009390D02*
X120214286Y-93961771D01*
X120214286Y-93961771D02*
X120166667Y-93866533D01*
X120166667Y-93866533D02*
X120166667Y-93771295D01*
X120166667Y-93771295D02*
X120214286Y-93676057D01*
X120214286Y-93676057D02*
X120261905Y-93628438D01*
X120261905Y-93628438D02*
X120357143Y-93580819D01*
X120357143Y-93580819D02*
X120595238Y-93580819D01*
X120595238Y-93580819D02*
X120738095Y-93628438D01*
X121071429Y-93580819D02*
X121309524Y-94580819D01*
X121309524Y-94580819D02*
X121500000Y-93866533D01*
X121500000Y-93866533D02*
X121690476Y-94580819D01*
X121690476Y-94580819D02*
X121928572Y-93580819D01*
X122738095Y-93914152D02*
X122738095Y-94580819D01*
X122500000Y-93533200D02*
X122261905Y-94247485D01*
X122261905Y-94247485D02*
X122880952Y-94247485D01*
X140166667Y-94533200D02*
X140309524Y-94580819D01*
X140309524Y-94580819D02*
X140547619Y-94580819D01*
X140547619Y-94580819D02*
X140642857Y-94533200D01*
X140642857Y-94533200D02*
X140690476Y-94485580D01*
X140690476Y-94485580D02*
X140738095Y-94390342D01*
X140738095Y-94390342D02*
X140738095Y-94295104D01*
X140738095Y-94295104D02*
X140690476Y-94199866D01*
X140690476Y-94199866D02*
X140642857Y-94152247D01*
X140642857Y-94152247D02*
X140547619Y-94104628D01*
X140547619Y-94104628D02*
X140357143Y-94057009D01*
X140357143Y-94057009D02*
X140261905Y-94009390D01*
X140261905Y-94009390D02*
X140214286Y-93961771D01*
X140214286Y-93961771D02*
X140166667Y-93866533D01*
X140166667Y-93866533D02*
X140166667Y-93771295D01*
X140166667Y-93771295D02*
X140214286Y-93676057D01*
X140214286Y-93676057D02*
X140261905Y-93628438D01*
X140261905Y-93628438D02*
X140357143Y-93580819D01*
X140357143Y-93580819D02*
X140595238Y-93580819D01*
X140595238Y-93580819D02*
X140738095Y-93628438D01*
X141071429Y-93580819D02*
X141309524Y-94580819D01*
X141309524Y-94580819D02*
X141500000Y-93866533D01*
X141500000Y-93866533D02*
X141690476Y-94580819D01*
X141690476Y-94580819D02*
X141928572Y-93580819D01*
X142785714Y-93580819D02*
X142309524Y-93580819D01*
X142309524Y-93580819D02*
X142261905Y-94057009D01*
X142261905Y-94057009D02*
X142309524Y-94009390D01*
X142309524Y-94009390D02*
X142404762Y-93961771D01*
X142404762Y-93961771D02*
X142642857Y-93961771D01*
X142642857Y-93961771D02*
X142738095Y-94009390D01*
X142738095Y-94009390D02*
X142785714Y-94057009D01*
X142785714Y-94057009D02*
X142833333Y-94152247D01*
X142833333Y-94152247D02*
X142833333Y-94390342D01*
X142833333Y-94390342D02*
X142785714Y-94485580D01*
X142785714Y-94485580D02*
X142738095Y-94533200D01*
X142738095Y-94533200D02*
X142642857Y-94580819D01*
X142642857Y-94580819D02*
X142404762Y-94580819D01*
X142404762Y-94580819D02*
X142309524Y-94533200D01*
X142309524Y-94533200D02*
X142261905Y-94485580D01*
X187166666Y-50304819D02*
X186833333Y-49828628D01*
X186595238Y-50304819D02*
X186595238Y-49304819D01*
X186595238Y-49304819D02*
X186976190Y-49304819D01*
X186976190Y-49304819D02*
X187071428Y-49352438D01*
X187071428Y-49352438D02*
X187119047Y-49400057D01*
X187119047Y-49400057D02*
X187166666Y-49495295D01*
X187166666Y-49495295D02*
X187166666Y-49638152D01*
X187166666Y-49638152D02*
X187119047Y-49733390D01*
X187119047Y-49733390D02*
X187071428Y-49781009D01*
X187071428Y-49781009D02*
X186976190Y-49828628D01*
X186976190Y-49828628D02*
X186595238Y-49828628D01*
X187595238Y-49781009D02*
X187928571Y-49781009D01*
X188071428Y-50304819D02*
X187595238Y-50304819D01*
X187595238Y-50304819D02*
X187595238Y-49304819D01*
X187595238Y-49304819D02*
X188071428Y-49304819D01*
X188833333Y-49781009D02*
X188500000Y-49781009D01*
X188500000Y-50304819D02*
X188500000Y-49304819D01*
X188500000Y-49304819D02*
X188976190Y-49304819D01*
X189500000Y-49304819D02*
X189500000Y-49542914D01*
X189261905Y-49447676D02*
X189500000Y-49542914D01*
X189500000Y-49542914D02*
X189738095Y-49447676D01*
X189357143Y-49733390D02*
X189500000Y-49542914D01*
X189500000Y-49542914D02*
X189642857Y-49733390D01*
X190261905Y-49304819D02*
X190261905Y-49542914D01*
X190023810Y-49447676D02*
X190261905Y-49542914D01*
X190261905Y-49542914D02*
X190500000Y-49447676D01*
X190119048Y-49733390D02*
X190261905Y-49542914D01*
X190261905Y-49542914D02*
X190404762Y-49733390D01*
X160086667Y-94533200D02*
X160229524Y-94580819D01*
X160229524Y-94580819D02*
X160467619Y-94580819D01*
X160467619Y-94580819D02*
X160562857Y-94533200D01*
X160562857Y-94533200D02*
X160610476Y-94485580D01*
X160610476Y-94485580D02*
X160658095Y-94390342D01*
X160658095Y-94390342D02*
X160658095Y-94295104D01*
X160658095Y-94295104D02*
X160610476Y-94199866D01*
X160610476Y-94199866D02*
X160562857Y-94152247D01*
X160562857Y-94152247D02*
X160467619Y-94104628D01*
X160467619Y-94104628D02*
X160277143Y-94057009D01*
X160277143Y-94057009D02*
X160181905Y-94009390D01*
X160181905Y-94009390D02*
X160134286Y-93961771D01*
X160134286Y-93961771D02*
X160086667Y-93866533D01*
X160086667Y-93866533D02*
X160086667Y-93771295D01*
X160086667Y-93771295D02*
X160134286Y-93676057D01*
X160134286Y-93676057D02*
X160181905Y-93628438D01*
X160181905Y-93628438D02*
X160277143Y-93580819D01*
X160277143Y-93580819D02*
X160515238Y-93580819D01*
X160515238Y-93580819D02*
X160658095Y-93628438D01*
X160991429Y-93580819D02*
X161229524Y-94580819D01*
X161229524Y-94580819D02*
X161420000Y-93866533D01*
X161420000Y-93866533D02*
X161610476Y-94580819D01*
X161610476Y-94580819D02*
X161848572Y-93580819D01*
X162658095Y-93580819D02*
X162467619Y-93580819D01*
X162467619Y-93580819D02*
X162372381Y-93628438D01*
X162372381Y-93628438D02*
X162324762Y-93676057D01*
X162324762Y-93676057D02*
X162229524Y-93818914D01*
X162229524Y-93818914D02*
X162181905Y-94009390D01*
X162181905Y-94009390D02*
X162181905Y-94390342D01*
X162181905Y-94390342D02*
X162229524Y-94485580D01*
X162229524Y-94485580D02*
X162277143Y-94533200D01*
X162277143Y-94533200D02*
X162372381Y-94580819D01*
X162372381Y-94580819D02*
X162562857Y-94580819D01*
X162562857Y-94580819D02*
X162658095Y-94533200D01*
X162658095Y-94533200D02*
X162705714Y-94485580D01*
X162705714Y-94485580D02*
X162753333Y-94390342D01*
X162753333Y-94390342D02*
X162753333Y-94152247D01*
X162753333Y-94152247D02*
X162705714Y-94057009D01*
X162705714Y-94057009D02*
X162658095Y-94009390D01*
X162658095Y-94009390D02*
X162562857Y-93961771D01*
X162562857Y-93961771D02*
X162372381Y-93961771D01*
X162372381Y-93961771D02*
X162277143Y-94009390D01*
X162277143Y-94009390D02*
X162229524Y-94057009D01*
X162229524Y-94057009D02*
X162181905Y-94152247D01*
X135954819Y-61071904D02*
X136764342Y-61071904D01*
X136764342Y-61071904D02*
X136859580Y-61024285D01*
X136859580Y-61024285D02*
X136907200Y-60976666D01*
X136907200Y-60976666D02*
X136954819Y-60881428D01*
X136954819Y-60881428D02*
X136954819Y-60690952D01*
X136954819Y-60690952D02*
X136907200Y-60595714D01*
X136907200Y-60595714D02*
X136859580Y-60548095D01*
X136859580Y-60548095D02*
X136764342Y-60500476D01*
X136764342Y-60500476D02*
X135954819Y-60500476D01*
X136050057Y-60071904D02*
X136002438Y-60024285D01*
X136002438Y-60024285D02*
X135954819Y-59929047D01*
X135954819Y-59929047D02*
X135954819Y-59690952D01*
X135954819Y-59690952D02*
X136002438Y-59595714D01*
X136002438Y-59595714D02*
X136050057Y-59548095D01*
X136050057Y-59548095D02*
X136145295Y-59500476D01*
X136145295Y-59500476D02*
X136240533Y-59500476D01*
X136240533Y-59500476D02*
X136383390Y-59548095D01*
X136383390Y-59548095D02*
X136954819Y-60119523D01*
X136954819Y-60119523D02*
X136954819Y-59500476D01*
X187166666Y-109304819D02*
X186833333Y-108828628D01*
X186595238Y-109304819D02*
X186595238Y-108304819D01*
X186595238Y-108304819D02*
X186976190Y-108304819D01*
X186976190Y-108304819D02*
X187071428Y-108352438D01*
X187071428Y-108352438D02*
X187119047Y-108400057D01*
X187119047Y-108400057D02*
X187166666Y-108495295D01*
X187166666Y-108495295D02*
X187166666Y-108638152D01*
X187166666Y-108638152D02*
X187119047Y-108733390D01*
X187119047Y-108733390D02*
X187071428Y-108781009D01*
X187071428Y-108781009D02*
X186976190Y-108828628D01*
X186976190Y-108828628D02*
X186595238Y-108828628D01*
X187595238Y-108781009D02*
X187928571Y-108781009D01*
X188071428Y-109304819D02*
X187595238Y-109304819D01*
X187595238Y-109304819D02*
X187595238Y-108304819D01*
X187595238Y-108304819D02*
X188071428Y-108304819D01*
X188833333Y-108781009D02*
X188500000Y-108781009D01*
X188500000Y-109304819D02*
X188500000Y-108304819D01*
X188500000Y-108304819D02*
X188976190Y-108304819D01*
X189500000Y-108304819D02*
X189500000Y-108542914D01*
X189261905Y-108447676D02*
X189500000Y-108542914D01*
X189500000Y-108542914D02*
X189738095Y-108447676D01*
X189357143Y-108733390D02*
X189500000Y-108542914D01*
X189500000Y-108542914D02*
X189642857Y-108733390D01*
X190261905Y-108304819D02*
X190261905Y-108542914D01*
X190023810Y-108447676D02*
X190261905Y-108542914D01*
X190261905Y-108542914D02*
X190500000Y-108447676D01*
X190119048Y-108733390D02*
X190261905Y-108542914D01*
X190261905Y-108542914D02*
X190404762Y-108733390D01*
%TO.C,U1*%
D14*
X112475000Y-54380000D02*
X112475000Y-71380000D01*
X114475000Y-73380000D02*
X128275000Y-73380000D01*
X116875000Y-50955970D02*
X125875000Y-50955970D01*
X116875000Y-58309270D02*
X116875000Y-50955970D01*
X125875000Y-50955970D02*
X125875000Y-58309270D01*
X125875000Y-58309270D02*
X116875000Y-58309270D01*
X128275000Y-52380910D02*
X114475000Y-52380910D01*
X130275000Y-71380000D02*
X130275000Y-54380000D01*
D15*
X112475000Y-54380000D02*
G75*
G02*
X114475000Y-52380000I2044612J-44612D01*
G01*
X114475000Y-73380000D02*
G75*
G02*
X112475000Y-71380000I44857J2044857D01*
G01*
X128275000Y-52380000D02*
G75*
G02*
X130275000Y-54380000I-44610J-2044610D01*
G01*
X130275000Y-71380000D02*
G75*
G02*
X128275000Y-73380000I-2000000J0D01*
G01*
D16*
X110502000Y-54080000D02*
G75*
G02*
X110248000Y-54080000I-127000J0D01*
G01*
X110248000Y-54080000D02*
G75*
G02*
X110502000Y-54080000I127000J0D01*
G01*
D17*
X112487285Y-54318295D02*
X112490333Y-54269527D01*
X112494397Y-54220506D01*
X112487285Y-54318295D01*
X130264492Y-71401574D02*
X130262713Y-71450850D01*
X130259665Y-71499618D01*
X130255601Y-71548639D01*
X130250268Y-71597407D01*
X130243664Y-71646175D01*
X130236044Y-71694690D01*
X130227153Y-71742950D01*
X130217248Y-71790955D01*
X130264492Y-71401574D01*
%TO.C,SW3*%
D15*
X154435000Y-75515000D02*
X168405000Y-75515000D01*
X154435000Y-89485000D02*
X154435000Y-75515000D01*
X168405000Y-75515000D02*
X168405000Y-89485000D01*
X168405000Y-89485000D02*
X154435000Y-89485000D01*
%TO.C,SW1*%
X114435000Y-75515000D02*
X128405000Y-75515000D01*
X114435000Y-89485000D02*
X114435000Y-75515000D01*
X128405000Y-75515000D02*
X128405000Y-89485000D01*
X128405000Y-89485000D02*
X114435000Y-89485000D01*
%TO.C,SW2*%
X134435000Y-75515000D02*
X148405000Y-75515000D01*
X134435000Y-89485000D02*
X134435000Y-75515000D01*
X148405000Y-75515000D02*
X148405000Y-89485000D01*
X148405000Y-89485000D02*
X134435000Y-89485000D01*
%TO.C,SW10*%
X172700000Y-87800000D02*
X173300000Y-87800000D01*
X173000000Y-88100000D02*
X172700000Y-87800000D01*
X173300000Y-87800000D02*
X173000000Y-88100000D01*
X174400000Y-86000000D02*
X174400000Y-97800000D01*
X178500000Y-86000000D02*
X174400000Y-86000000D01*
X178500000Y-97800000D02*
X174400000Y-97800000D01*
X180000000Y-91900000D02*
X181000000Y-91900000D01*
X180500000Y-91400000D02*
X180500000Y-92400000D01*
X182500000Y-86000000D02*
X186600000Y-86000000D01*
X186600000Y-86000000D02*
X186600000Y-88400000D01*
X186600000Y-90600000D02*
X186600000Y-93200000D01*
X186600000Y-95400000D02*
X186600000Y-97800000D01*
X186600000Y-97800000D02*
X182500000Y-97800000D01*
X183500000Y-91900000D02*
G75*
G02*
X177500000Y-91900000I-3000000J0D01*
G01*
X177500000Y-91900000D02*
G75*
G02*
X183500000Y-91900000I3000000J0D01*
G01*
%TO.C,SW4*%
X114515000Y-95015000D02*
X128485000Y-95015000D01*
X114515000Y-108985000D02*
X114515000Y-95015000D01*
X128485000Y-95015000D02*
X128485000Y-108985000D01*
X128485000Y-108985000D02*
X114515000Y-108985000D01*
%TO.C,SW5*%
X134515000Y-95015000D02*
X148485000Y-95015000D01*
X134515000Y-108985000D02*
X134515000Y-95015000D01*
X148485000Y-95015000D02*
X148485000Y-108985000D01*
X148485000Y-108985000D02*
X134515000Y-108985000D01*
%TO.C,SW6*%
X154435000Y-95015000D02*
X168405000Y-95015000D01*
X154435000Y-108985000D02*
X154435000Y-95015000D01*
X168405000Y-95015000D02*
X168405000Y-108985000D01*
X168405000Y-108985000D02*
X154435000Y-108985000D01*
%TO.C,U2*%
X139000000Y-65690000D02*
X140380000Y-65690000D01*
X140380000Y-64310000D02*
X140380000Y-65690000D01*
X137500000Y-54500000D02*
X175500000Y-54500000D01*
X175500000Y-66500000D01*
X137500000Y-66500000D01*
X137500000Y-54500000D01*
%TD*%
M02*
