%TF.GenerationSoftware,KiCad,Pcbnew,10.0.6*%
%TF.CreationDate,2026-09-18T18:27:19-03:00*%
%TF.ProjectId,hackpad,6861636b-7061-4642-9e6b-696361645f70,rev?*%
%TF.SameCoordinates,Original*%
%TF.FileFunction,Soldermask,Top*%
%TF.FilePolarity,Negative*%
%FSLAX46Y46*%
G04 Gerber Fmt 4.6, Leading zero omitted, Abs format (unit mm)*
G04 Created by KiCad (PCBNEW 10.0.6) date 2026-09-18 18:27:19*
%MOMM*%
%LPD*%
G01*
G04 APERTURE LIST*
G04 Aperture macros list*
%AMRoundRect*
0 Rectangle with rounded corners*
0 $1 Rounding radius*
0 $2 $3 $4 $5 $6 $7 $8 $9 X,Y pos of 4 corners*
0 Add a 4 corners polygon primitive as box body*
4,1,4,$2,$3,$4,$5,$6,$7,$8,$9,$2,$3,0*
0 Add four circle primitives for the rounded corners*
1,1,$1+$1,$2,$3*
1,1,$1+$1,$4,$5*
1,1,$1+$1,$6,$7*
1,1,$1+$1,$8,$9*
0 Add four rect primitives between the rounded corners*
20,1,$1+$1,$2,$3,$4,$5,0*
20,1,$1+$1,$4,$5,$6,$7,0*
20,1,$1+$1,$6,$7,$8,$9,0*
20,1,$1+$1,$8,$9,$2,$3,0*%
G04 Aperture macros list end*
%ADD10R,3.500000X1.700000*%
%ADD11O,3.600000X1.700000*%
%ADD12O,3.700000X1.700000*%
%ADD13C,1.700000*%
%ADD14C,4.000000*%
%ADD15C,2.200000*%
%ADD16R,2.000000X2.000000*%
%ADD17C,2.000000*%
%ADD18R,3.200000X2.000000*%
%ADD19RoundRect,0.170000X0.680000X-0.680000X0.680000X0.680000X-0.680000X0.680000X-0.680000X-0.680000X0*%
%ADD20RoundRect,0.250000X0.550000X-0.550000X0.550000X0.550000X-0.550000X0.550000X-0.550000X-0.550000X0*%
%ADD21C,1.600000*%
G04 APERTURE END LIST*
D10*
%TO.C,U1*%
X112750000Y-55260000D03*
D11*
X112750000Y-57800000D03*
X112750000Y-60340000D03*
X112750000Y-62880000D03*
X112750000Y-65420000D03*
X112750000Y-67960000D03*
X112750000Y-70500000D03*
X130000000Y-70500000D03*
X130000000Y-67960000D03*
X130000000Y-65420000D03*
D12*
X130000000Y-62880000D03*
X130000000Y-60340000D03*
X130000000Y-57800000D03*
X130000000Y-55260000D03*
%TD*%
D13*
%TO.C,SW3*%
X156340000Y-82500000D03*
D14*
X161420000Y-82500000D03*
D13*
X166500000Y-82500000D03*
D15*
X163960000Y-77420000D03*
X157610000Y-79960000D03*
%TD*%
D13*
%TO.C,SW1*%
X116340000Y-82500000D03*
D14*
X121420000Y-82500000D03*
D13*
X126500000Y-82500000D03*
D15*
X123960000Y-77420000D03*
X117610000Y-79960000D03*
%TD*%
D13*
%TO.C,SW2*%
X136340000Y-82500000D03*
D14*
X141420000Y-82500000D03*
D13*
X146500000Y-82500000D03*
D15*
X143960000Y-77420000D03*
X137610000Y-79960000D03*
%TD*%
%TO.C,REF\u002A\u002A*%
X110500000Y-112000000D03*
%TD*%
D16*
%TO.C,SW10*%
X173000000Y-89400000D03*
D17*
X173000000Y-94400000D03*
X173000000Y-91900000D03*
D18*
X180500000Y-86300000D03*
X180500000Y-97500000D03*
D17*
X187500000Y-94400000D03*
X187500000Y-89400000D03*
%TD*%
D13*
%TO.C,SW4*%
X116420000Y-102000000D03*
D14*
X121500000Y-102000000D03*
D13*
X126580000Y-102000000D03*
D15*
X124040000Y-96920000D03*
X117690000Y-99460000D03*
%TD*%
D13*
%TO.C,SW5*%
X136420000Y-102000000D03*
D14*
X141500000Y-102000000D03*
D13*
X146580000Y-102000000D03*
D15*
X144040000Y-96920000D03*
X137690000Y-99460000D03*
%TD*%
%TO.C,REF\u002A\u002A*%
X188500000Y-53000000D03*
%TD*%
D13*
%TO.C,SW6*%
X156340000Y-102000000D03*
D14*
X161420000Y-102000000D03*
D13*
X166500000Y-102000000D03*
D15*
X163960000Y-96920000D03*
X157610000Y-99460000D03*
%TD*%
D19*
%TO.C,U2*%
X139000000Y-64310000D03*
D13*
X139000000Y-61770000D03*
X139000000Y-59230000D03*
X139000000Y-56690000D03*
%TD*%
D15*
%TO.C,REF\u002A\u002A*%
X188500000Y-112000000D03*
%TD*%
D20*
%TO.C,D1*%
X112000000Y-86810000D03*
D21*
X112000000Y-79190000D03*
%TD*%
D20*
%TO.C,D2*%
X131500000Y-86810000D03*
D21*
X131500000Y-79190000D03*
%TD*%
D20*
%TO.C,D5*%
X131500000Y-106810000D03*
D21*
X131500000Y-99190000D03*
%TD*%
D20*
%TO.C,D4*%
X111500000Y-107000000D03*
D21*
X111500000Y-99380000D03*
%TD*%
D20*
%TO.C,D6*%
X152500000Y-106810000D03*
D21*
X152500000Y-99190000D03*
%TD*%
D20*
%TO.C,D3*%
X151500000Y-87000000D03*
D21*
X151500000Y-79380000D03*
%TD*%
%TO.C,R1*%
X160310000Y-70000000D03*
X152690000Y-70000000D03*
%TD*%
M02*
